<?xml version="1.0" standalone="no"?>
<!DOCTYPE svg PUBLIC "-//W3C//DTD SVG 1.1//EN" "http://www.w3.org/Graphics/SVG/1.1/DTD/svg11.dtd" >
<svg>
<metadata>
Created by FontForge 20110222 at Mon Jan  6 19:58:09 2014
 By Orthosie Webhosting
Copyright (c) 2007 by Prinya R. nont. All rights reserved.
</metadata>
<defs>
<font id="DBAdmanXRegular" horiz-adv-x="0" >
  <font-face 
    font-family="DBAdmanXRegular"
    font-weight="400"
    font-stretch="normal"
    units-per-em="1000"
    panose-1="2 0 5 6 9 0 0 2 0 4"
    ascent="800"
    descent="-200"
    x-height="365"
    cap-height="528"
    bbox="-438 -358 955 828"
    underline-thickness="20"
    underline-position="-113"
    unicode-range="U+0020-F882"
  />
<missing-glyph horiz-adv-x="414" 
d="M422 400v-14h6q7 0 7 9q0 1 -1.5 3t-5.5 2h-6zM425 385h-3v-14h-5v34h11q12 0 12 -10q0 -7 -3 -8.5t-7 -1.5l10 -14h-5zM428 366q13 0 17.5 7t4.5 13q0 24 -22 24q-23 0 -23 -24q0 -8 5.5 -14t17.5 -6zM428 413q13 0 19 -8t6 -19q0 -8 -6 -15.5t-19 -7.5q-12 0 -19 7.5
t-7 15.5q0 11 7 19t19 8zM201 316q16 -1 37.5 -4t43 -7t39.5 -9.5t27 -12.5q-20 40 -62 61.5t-86 21.5q-34 0 -65 -13t-51 -40q18 2 36 3t36 1h22.5t22.5 -1zM375 395v-142q-48 15 -109.5 25.5t-130.5 10.5q-48 0 -94 -6q6 22 19 42.5t33 36t46.5 24.5t58.5 9q31 0 56 -7
t43.5 -17t31.5 -22t19 -21q0 -1 0 6.5t-0.5 18.5t-0.5 23v19h28zM153 127q0 8 -5.5 12t-11.5 4q-7 0 -12 -4t-5 -12t5 -11.5t12 -3.5q6 0 11.5 3.5t5.5 11.5zM32 139q0 23 9 41t24 30t34 18t39 6t38.5 -5.5t33 -16.5t23 -28t8.5 -41v-116h106v202h28v-228h-189v26h29v119
q0 30 -22 45t-54 15q-30 0 -54 -16.5t-24 -46.5v-107l58 58q-5 2 -13 10t-8 23q0 18 11 28.5t29 10.5q17 0 27.5 -11.5t10.5 -27.5q0 -14 -5.5 -21.5t-9.5 -11.5q-2 -2 -17 -16.5t-33 -31.5q-11 -10 -22.5 -21t-24.5 -24h-32v138z" />
    <glyph glyph-name="plusminus" unicode="&#x2b;&#x2d;" horiz-adv-x="390" 
d="M227 232v-145h-63v145h-146v63h145v146h63v-146h146v-63h-145zM18 0v63h354v-63h-354z" />
    <glyph glyph-name="ellipsis" unicode="&#x2e;&#x2e;&#x2e;" horiz-adv-x="469" 
d="M439 45q0 -21 -14.5 -35t-34.5 -14t-34.5 14t-14.5 34q0 21 14.5 35t34.5 14t34.5 -14t14.5 -34zM283 45q0 -21 -14.5 -35t-34.5 -14t-34.5 14t-14.5 34q0 21 14.5 35t34.5 14t34 -14t14 -34h1zM127 45q0 -21 -14.5 -35t-34.5 -14t-34.5 14t-14.5 34q0 21 14.5 35
t34.5 14t34 -14t14 -34h1z" />
    <glyph glyph-name="lessequal" unicode="&#x3c;&#x3d;" horiz-adv-x="391" 
d="M23 295v58l345 171v-68l-261 -132l261 -141v-67zM368 53v-67l-345 179v74z" />
    <glyph glyph-name="greaterequal" unicode="&#x3e;&#x3d;" horiz-adv-x="391" 
d="M23 116v67l261 141l-261 132v68l345 -171v-58zM368 239v-74l-345 -179v67z" />
    <glyph glyph-name="fongmanfunnuthai" unicode="&#xe4f;&#x22;" horiz-adv-x="530" 
d="M334 463h-42l-9 149h60zM236 463h-40l-9 149h59zM485 212q0 -45 -17.5 -85t-47.5 -70t-70 -47.5t-85 -17.5t-85 17.5t-70 47.5t-47.5 70t-17.5 85t17.5 85t47.5 70t70 47.5t85 17.5t85 -17.5t70 -47.5t47.5 -70t17.5 -85zM383 212q0 -24 -9.5 -45.5t-25.5 -37.5
t-37.5 -25.5t-45.5 -9.5t-45.5 9.5t-37.5 25.5t-25.5 37.5t-9.5 45.5t9.5 45.5t25.5 37.5t37.5 25.5t45.5 9.5t45.5 -9.5t37.5 -25.5t25.5 -37.5t9.5 -45.5zM328 212q0 26 -18.5 44.5t-44.5 18.5t-44.5 -18.5t-18.5 -44.5t18.5 -44.5t44.5 -18.5t44.5 18.5t18.5 44.5z
M428 211q0 34 -13 63.5t-35 52t-51.5 35.5t-63.5 13t-63.5 -13t-51.5 -35t-35 -51.5t-13 -63.5t13 -63.5t35 -51.5t51.5 -35t63.5 -13t63.5 13t51.5 35t34.5 51.5t12.5 63.5z" />
    <glyph glyph-name="dochadaphinthuthai" unicode="&#xe0e;&#xe3a;" horiz-adv-x="465" 
d="M322 -183q-35 26 -66.5 38t-65.5 12q-33 0 -64.5 -11.5t-66.5 -38.5l-42 50q45 33 86.5 48.5t86.5 15.5q68 0 124 -31l48 47v312q0 60 -40.5 96.5t-103.5 36.5q-33 0 -63.5 -16t-51.5 -40l31 -33v-303h-110v65h43v216l-46 50q32 57 83 91t114 34q46 0 85 -14.5t67 -41
t43.5 -62.5t15.5 -79v-338zM434 -238q0 -18 -13 -31t-32 -13t-32 13t-13 31t13 31t32 13t32 -13t13 -31z" />
    <glyph glyph-name="topatakphintuthai" unicode="&#xe0f;&#xe3a;" horiz-adv-x="465" 
d="M320 -185l-72 70l-71 -70l-121 117l47 46l74 -71l72 69l72 -70l41 40v313q0 29 -10.5 53.5t-30 42t-46 27t-57.5 9.5q-33 0 -63.5 -15.5t-50.5 -40.5l30 -32v-303h-110v65h43v215l-46 51q32 57 84 91t113 34q46 0 85 -15t67 -41t43.5 -62.5t15.5 -79.5v-337zM434 -238
q0 -18 -13 -31t-32 -13t-32 13t-13 31t13 31t32 13t32 -13t13 -31z" />
    <glyph glyph-name="dochadasarauthai" unicode="&#xe0e;&#xe38;" horiz-adv-x="465" 
d="M322 -183q-35 26 -66.5 38t-65.5 12q-33 0 -64.5 -11.5t-66.5 -38.5l-42 50q45 33 86.5 48.5t86.5 15.5q68 0 124 -31l48 47v312q0 60 -40.5 96.5t-103.5 36.5q-33 0 -63.5 -16t-51.5 -40l31 -33v-303h-110v65h43v216l-46 50q32 57 83 91t114 34q46 0 85 -14.5t67 -41
t43.5 -62.5t15.5 -79v-338zM367 -342v80h-40v63h68q15 0 25 -10t10 -25v-108h-63z" />
    <glyph glyph-name="topataksarauthai" unicode="&#xe0f;&#xe38;" horiz-adv-x="465" 
d="M320 -185l-72 70l-71 -70l-121 117l47 46l74 -71l72 69l72 -70l41 40v313q0 29 -10.5 53.5t-30 42t-46 27t-57.5 9.5q-33 0 -63.5 -15.5t-50.5 -40.5l30 -32v-303h-110v65h43v215l-46 51q32 57 84 91t113 34q46 0 85 -15t67 -41t43.5 -62.5t15.5 -79.5v-337zM367 -342v80
h-40v63h68q15 0 25 -10t10 -25v-108h-63z" />
    <glyph glyph-name="dochadasarauuthai" unicode="&#xe0e;&#xe39;" horiz-adv-x="465" 
d="M322 -183q-35 26 -66.5 38t-65.5 12q-33 0 -64.5 -11.5t-66.5 -38.5l-42 50q45 33 86.5 48.5t86.5 15.5q68 0 124 -31l48 47v312q0 60 -40.5 96.5t-103.5 36.5q-33 0 -63.5 -16t-51.5 -40l31 -33v-303h-110v65h43v216l-46 50q32 57 83 91t114 34q46 0 85 -14.5t67 -41
t43.5 -62.5t15.5 -79v-338zM429 -269q0 -18 -7 -34t-18.5 -27.5t-27 -18.5t-33.5 -7t-34 7t-27.5 18.5t-18.5 27t-7 33.5v7h-40v63h103v-69q0 -10 6 -17t17 -7t17.5 7t6.5 17v69h63v-70v1z" />
    <glyph glyph-name="topataksarauuthai" unicode="&#xe0f;&#xe39;" horiz-adv-x="465" 
d="M320 -185l-72 70l-71 -70l-121 117l47 46l74 -71l72 69l72 -70l41 40v313q0 29 -10.5 53.5t-30 42t-46 27t-57.5 9.5q-33 0 -63.5 -15.5t-50.5 -40.5l30 -32v-303h-110v65h43v215l-46 51q32 57 84 91t113 34q46 0 85 -15t67 -41t43.5 -62.5t15.5 -79.5v-337zM429 -271
q0 -18 -7 -34t-18.5 -27.5t-27 -18.5t-33.5 -7t-34 7t-27.5 18.5t-18.5 27t-7 33.5v7h-40v63h103v-69q0 -10 6 -17t17 -7t17.5 7t6.5 17v69h63v-70v1z" />
    <glyph glyph-name=".notdef" horiz-adv-x="414" 
d="M422 400v-14h6q7 0 7 9q0 1 -1.5 3t-5.5 2h-6zM425 385h-3v-14h-5v34h11q12 0 12 -10q0 -7 -3 -8.5t-7 -1.5l10 -14h-5zM428 366q13 0 17.5 7t4.5 13q0 24 -22 24q-23 0 -23 -24q0 -8 5.5 -14t17.5 -6zM428 413q13 0 19 -8t6 -19q0 -8 -6 -15.5t-19 -7.5q-12 0 -19 7.5
t-7 15.5q0 11 7 19t19 8zM201 316q16 -1 37.5 -4t43 -7t39.5 -9.5t27 -12.5q-20 40 -62 61.5t-86 21.5q-34 0 -65 -13t-51 -40q18 2 36 3t36 1h22.5t22.5 -1zM375 395v-142q-48 15 -109.5 25.5t-130.5 10.5q-48 0 -94 -6q6 22 19 42.5t33 36t46.5 24.5t58.5 9q31 0 56 -7
t43.5 -17t31.5 -22t19 -21q0 -1 0 6.5t-0.5 18.5t-0.5 23v19h28zM153 127q0 8 -5.5 12t-11.5 4q-7 0 -12 -4t-5 -12t5 -11.5t12 -3.5q6 0 11.5 3.5t5.5 11.5zM32 139q0 23 9 41t24 30t34 18t39 6t38.5 -5.5t33 -16.5t23 -28t8.5 -41v-116h106v202h28v-228h-189v26h29v119
q0 30 -22 45t-54 15q-30 0 -54 -16.5t-24 -46.5v-107l58 58q-5 2 -13 10t-8 23q0 18 11 28.5t29 10.5q17 0 27.5 -11.5t10.5 -27.5q0 -14 -5.5 -21.5t-9.5 -11.5q-2 -2 -17 -16.5t-33 -31.5q-11 -10 -22.5 -21t-24.5 -24h-32v138z" />
    <glyph glyph-name=".null" 
 />
    <glyph glyph-name="nonmarkingreturn" horiz-adv-x="283" 
 />
    <glyph glyph-name="space" unicode=" " horiz-adv-x="250" 
 />
    <glyph glyph-name="exclam" unicode="!" horiz-adv-x="205" 
d="M141 319l-13 -198h-53l-11 198v209h77v-209zM151 43q0 -20 -14.5 -34t-34.5 -14t-34.5 14t-14.5 34q0 21 14 35.5t35 14.5t35 -14.5t14 -35.5z" />
    <glyph glyph-name="quotedbl" unicode="&#x22;" horiz-adv-x="201" 
d="M171 352h-48l-8 180h64zM76 352h-46l-8 180h64z" />
    <glyph glyph-name="numbersign" unicode="#" horiz-adv-x="423" 
d="M317 292l-13 -85h74v-62h-84l-24 -144h-61l23 144h-65l-22 -144h-61l20 144h-75v62h84l12 85h-78v62h86l21 134h64l-21 -134h66l20 134h64l-20 -134h67v-62h-77zM187 292l-12 -85h67l11 85h-66z" />
    <glyph glyph-name="dollar" unicode="$" horiz-adv-x="413" 
d="M372 155q0 -57 -35.5 -98.5t-86.5 -58.5v-83h-68v80q-51 7 -86.5 38.5t-60.5 94.5l63 27q16 -42 37 -64t47 -27v193q-22 10 -42.5 22t-36.5 27.5t-25.5 36t-9.5 48.5q0 55 31.5 92.5t82.5 48.5v77h68v-80q29 -8 55 -27.5t49 -57.5l-54 -43q-29 46 -50 57v-158
q24 -12 46 -24.5t39 -28.5t27 -38.5t10 -53.5zM182 461q-20 -8 -32.5 -27t-12.5 -42q0 -21 13 -34t32 -24v127zM303 158q0 21 -14.5 36t-38.5 29v-151q24 14 38.5 36.5t14.5 49.5z" />
    <glyph glyph-name="percent" unicode="%" horiz-adv-x="494" 
d="M245 417q0 -24 -9.5 -45t-25 -36.5t-37 -24t-45.5 -8.5t-45.5 8.5t-37 24t-25 36.5t-9.5 45q0 25 9 46.5t25 37t37.5 24t45.5 8.5t45.5 -8.5t37.5 -24t25 -37t9 -46.5zM119 -19l-52 32l305 532l56 -26zM482 110q0 -25 -9.5 -46t-25 -36t-37 -23.5t-45.5 -8.5t-45.5 8.5
t-37.5 23.5t-25.5 36t-9.5 46t9.5 46t25.5 36.5t37.5 24t45.5 8.5t45.5 -8.5t37 -24t25 -36.5t9.5 -46zM180 417q0 21 -15 36t-37 15q-21 0 -36 -14.5t-15 -36.5q0 -20 15 -35t36 -15t36.5 15t15.5 35zM417 110q0 22 -15.5 36.5t-36.5 14.5q-22 0 -37 -14.5t-15 -36.5
q0 -21 15 -35.5t37 -14.5q21 0 36.5 14.5t15.5 35.5z" />
    <glyph glyph-name="ampersand" unicode="&#x26;" horiz-adv-x="521" 
d="M451 -2l-77 87q-36 -36 -79 -64.5t-91 -32.5q-30 -3 -57.5 6.5t-49 28t-35 44.5t-16.5 56q-3 33 7 61t28 52t41.5 44.5t46.5 38.5q-20 21 -35.5 45t-17.5 53q-2 23 5.5 44.5t21.5 38.5t34 27.5t43 12.5q24 2 44.5 -5.5t36 -21.5t25 -33t11.5 -41q2 -23 -3.5 -41.5
t-15.5 -34.5t-24 -30t-29 -27l108 -122l56 65l55 -41l-65 -75l115 -133zM268 433q-2 18 -14.5 29.5t-29.5 10.5q-16 -2 -28 -17.5t-10 -35.5q2 -17 13 -32.5t22 -28.5q17 15 33 32t14 42zM214 265q-15 -12 -33 -26t-33.5 -30.5t-25 -35.5t-7.5 -41q4 -35 27.5 -58t55.5 -20
q33 3 65.5 27.5t63.5 55.5z" />
    <glyph glyph-name="quotesingle" unicode="'" horiz-adv-x="142" 
d="M93 352h-46l-8 180h64z" />
    <glyph glyph-name="parenleft" unicode="(" horiz-adv-x="205" 
d="M188 539q-48 -70 -73.5 -150t-25.5 -165q0 -45 5.5 -83t17 -75.5t29.5 -77.5t43 -89l-65 -2q-48 78 -74 161t-26 168q0 84 27 162t73 153z" />
    <glyph glyph-name="parenright" unicode=")" horiz-adv-x="205" 
d="M186 226q0 -39 -6.5 -82t-19 -86t-31 -84t-42.5 -77h-66q25 48 43 88.5t30 78.5t17.5 77t5.5 83q0 85 -27 166t-72 151h69q45 -75 72 -154t27 -161z" />
    <glyph glyph-name="asterisk" unicode="*" horiz-adv-x="352" 
d="M226 382l59 -78l-54 -42l-53 77q-5 -7 -7 -9.5t-6.5 -8.5t-14 -18.5t-29.5 -39.5l-53 41l59 78l-93 28l22 64l90 -31l-4 97h68l-3 -97l90 31l22 -64z" />
    <glyph glyph-name="plus" unicode="+" horiz-adv-x="390" 
d="M227 158v-145h-63v145h-146v63h145v146h63v-146h146v-63h-145z" />
    <glyph glyph-name="comma" unicode="," horiz-adv-x="148" 
d="M131 29q0 -28 -20.5 -58t-62.5 -56l-34 34q20 13 31.5 23.5t19.5 21.5q-17 2 -29.5 15.5t-12.5 31.5q0 20 14.5 35t36.5 15q29 0 43 -20t14 -42z" />
    <glyph glyph-name="hyphen" unicode="-" horiz-adv-x="266" 
d="M26 159v63h215v-63h-215z" />
    <glyph glyph-name="period" unicode="." horiz-adv-x="148" 
d="M123 41q0 -21 -14.5 -35t-34.5 -14t-34.5 14t-14.5 34q0 21 14.5 35t34.5 14t34.5 -14t14.5 -34z" />
    <glyph glyph-name="slash" unicode="/" horiz-adv-x="458" 
d="M101 0h-72l324 588h69z" />
    <glyph glyph-name="zero" unicode="0" horiz-adv-x="410" 
d="M393 267q0 -51 -12 -100t-35 -88t-58.5 -62.5t-81.5 -23.5t-81 23.5t-58.5 62.5t-35.5 88t-12 100t12 99.5t35.5 86t58.5 60t81 22.5q45 0 80 -22.5t59 -60t36 -86t12 -99.5zM321 267q0 39 -8.5 75.5t-24 64.5t-36.5 44.5t-46 16.5q-26 0 -47 -16.5t-36.5 -44.5
t-24 -64.5t-8.5 -75.5q0 -44 8.5 -82t24 -66t36.5 -44t47 -16q25 0 46 16t36.5 44t24 66t8.5 82z" />
    <glyph glyph-name="one" unicode="1" horiz-adv-x="410" 
d="M184 -1v461h-95v68h164v-529h-69z" />
    <glyph glyph-name="two" unicode="2" horiz-adv-x="410" 
d="M372 372q0 -27 -9 -52t-23.5 -47.5t-31.5 -42.5t-33 -36l-125 -129h220v-65h-329v51l178 182q15 15 30 32.5t27 36t19.5 37t7.5 35.5q0 20 -7.5 37.5t-21 30t-31 20t-36.5 7.5q-42 0 -69 -28.5t-27 -88.5h-70q1 46 15.5 80.5t37.5 57.5t52.5 34t60.5 11q34 0 64 -12.5
t52.5 -34t35.5 -51.5t13 -65z" />
    <glyph glyph-name="three" unicode="3" horiz-adv-x="410" 
d="M365 156q0 -35 -11 -64.5t-32 -51.5t-51 -34.5t-67 -12.5q-30 0 -58.5 10.5t-50 31t-35 51.5t-13.5 72h67q2 -49 26 -74t63 -25q42 0 66.5 27.5t24.5 67.5q0 35 -23 59t-71 29v63q45 5 66 29t21 57q0 35 -22.5 56t-54.5 21t-54.5 -21.5t-22.5 -72.5h-70q0 81 41 121
t107 40q30 0 56.5 -10.5t46.5 -29.5t31.5 -46t11.5 -59q0 -69 -56 -114q31 -22 47.5 -53.5t16.5 -66.5z" />
    <glyph glyph-name="four" unicode="4" horiz-adv-x="410" 
d="M331 93v-93h-70v93h-244v57l258 378h56v-367h59v-68h-59zM261 389l-158 -228h158v228z" />
    <glyph glyph-name="five" unicode="5" horiz-adv-x="410" 
d="M386 185q0 -42 -15.5 -77.5t-41.5 -61t-62 -40t-76 -14.5q-48 0 -93.5 26t-77.5 84l62 28q25 -39 53 -55t57 -16q26 0 49 9.5t39.5 26.5t26 40t9.5 51q0 25 -10 46.5t-26.5 37.5t-38.5 25t-47 9q-28 0 -57.5 -11.5t-67.5 -33.5v270h271v-68h-200v-100q28 9 61 9
q39 0 73 -14.5t59 -39.5t39 -58.5t14 -72.5z" />
    <glyph glyph-name="six" unicode="6" horiz-adv-x="410" 
d="M389 183q0 -37 -14.5 -70.5t-37.5 -59.5q-53 -60 -132 -60q-38 0 -71.5 15t-58.5 40.5t-39.5 60t-14.5 74.5q0 35 10 63.5t27 55.5l151 227h85l-103 -154q4 0 8 0.5t9 0.5q38 0 71 -15.5t57.5 -42t38.5 -61.5t14 -74zM318 184q0 26 -9 48.5t-25 39t-36.5 26t-42.5 9.5
q-23 0 -43 -9.5t-35.5 -26t-24.5 -39t-9 -48.5t9 -49t24.5 -39.5t35.5 -26t43 -9.5q22 0 42.5 9.5t36.5 26t25 39.5t9 49z" />
    <glyph glyph-name="seven" unicode="7" horiz-adv-x="410" 
d="M125 0h-80l260 460h-273v68h354v-65z" />
    <glyph glyph-name="eight" unicode="8" horiz-adv-x="410" 
d="M367 147q0 -34 -13 -62t-35 -48.5t-51 -32t-62 -11.5q-32 0 -61 11.5t-51 32t-35 48.5t-13 62q0 40 15.5 72.5t47.5 55.5q-26 23 -39 51.5t-13 59.5t11.5 58.5t31.5 47.5t47 31.5t59 11.5t59.5 -11.5t47.5 -31.5t31.5 -47.5t11.5 -58.5t-13 -59.5t-39 -51.5
q32 -23 47.5 -55.5t15.5 -72.5zM286 387q0 16 -6.5 31t-17.5 26t-25.5 17.5t-30.5 6.5t-30.5 -6.5t-25 -17.5t-17 -26t-6.5 -31q0 -34 23 -57t56 -23t56.5 23.5t23.5 56.5zM298 150q0 18 -7.5 34.5t-20 28.5t-29 19t-35.5 7q-37 0 -64 -26t-27 -63q0 -19 7.5 -35.5t20 -29
t29 -19.5t34.5 -7t35 7t29.5 19.5t20 29t7.5 35.5z" />
    <glyph glyph-name="nine" unicode="9" horiz-adv-x="410" 
d="M390 342q0 -34 -10.5 -62t-27.5 -54l-148 -226h-85l104 155q-5 -1 -10 -1h-10q-37 0 -70 15.5t-57.5 41.5t-39 60.5t-14.5 73.5q0 40 15 75t40 60.5t58.5 40t71.5 14.5q39 0 72 -15t58 -41t39 -61.5t14 -75.5zM317 345q0 25 -9 47.5t-24 39t-35 26t-42 9.5
q-23 0 -43 -9.5t-36 -26t-25 -39t-9 -47.5q0 -26 9 -48.5t25 -39t36 -26t43 -9.5q22 0 42 9.5t35 26t24 39t9 48.5z" />
    <glyph glyph-name="colon" unicode=":" horiz-adv-x="148" 
d="M123 309q0 -21 -14.5 -35t-34.5 -14t-34.5 14t-14.5 34q0 21 14.5 35t34.5 14t34.5 -14t14.5 -34zM123 42q0 -21 -14.5 -35t-34.5 -14t-34.5 14t-14.5 34q0 21 14.5 35t34.5 14t34.5 -14t14.5 -35v1z" />
    <glyph glyph-name="semicolon" unicode=";" horiz-adv-x="148" 
d="M123 308q0 -20 -14.5 -34.5t-34.5 -14.5t-34 14.5t-14 34.5t14 34.5t34 14.5t34.5 -14.5t14.5 -34.5zM131 28q0 -28 -20.5 -58t-62.5 -56l-34 34q20 13 32 23.5t20 21.5q-18 2 -30 15.5t-12 31.5q0 20 14 35t36 15q29 0 43 -20t14 -42z" />
    <glyph glyph-name="less" unicode="&#x3c;" horiz-adv-x="391" 
d="M23 165v58l345 171v-68l-261 -132l261 -141v-67z" />
    <glyph glyph-name="equal" unicode="=" horiz-adv-x="398" 
d="M22 215v63h354v-63h-354zM22 102v63h354v-63h-354z" />
    <glyph glyph-name="greater" unicode="&#x3e;" horiz-adv-x="391" 
d="M23 -14v67l261 141l-261 132v68l345 -171v-58z" />
    <glyph glyph-name="question" unicode="?" horiz-adv-x="342" 
d="M321 399q0 -39 -18 -65.5t-39 -47t-39 -39.5t-18 -44v-79h-68v81q0 36 17.5 60t39 44.5t39 41t17.5 49.5q0 27 -20.5 50.5t-63.5 23.5q-46 0 -69 -30t-13 -84h-69q-8 40 1.5 73t30.5 57t52 37.5t67 13.5q35 0 63.5 -11.5t48.5 -31t30.5 -45.5t10.5 -54zM222 42
q0 -21 -14 -35.5t-35 -14.5t-35 14.5t-14 35.5t14 35t35 14q20 0 34.5 -14t14.5 -35z" />
    <glyph glyph-name="at" unicode="@" horiz-adv-x="552" 
d="M552 121q-43 -66 -108 -96.5t-137 -30.5q-58 0 -111.5 18.5t-94 53.5t-65 85.5t-24.5 114.5q0 55 22 104t59.5 85.5t87 57.5t105.5 21q52 0 98.5 -17t81 -47t54.5 -72t20 -91q0 -42 -15.5 -79.5t-40.5 -65t-56 -44t-62 -16.5q-32 0 -43 14t-13 26q-23 -14 -43.5 -20
t-40.5 -6q-49 0 -75 30.5t-26 75.5q0 33 11 68t33 63.5t54 47t73 18.5q20 0 38.5 -7t36.5 -24l6 18h55l-70 -210q-1 -2 -3 -9.5t-2 -15.5t4 -14.5t15 -6.5q18 0 38.5 15t37 38t27.5 51t11 55q0 40 -17 72.5t-45.5 55.5t-65 36t-74.5 13q-47 0 -88 -18.5t-71.5 -49
t-48.5 -71.5t-18 -86q0 -51 20.5 -92t55 -69.5t78.5 -43.5t92 -15q51 0 98 18.5t82 60.5zM348 315q1 6 -1.5 15t-9.5 17.5t-19 15t-28 6.5q-23 0 -43 -13.5t-36 -34.5t-25 -46t-9 -49q0 -26 12.5 -43.5t47.5 -17.5q13 0 26.5 6.5t25 16t20 21.5t12.5 24z" />
    <glyph glyph-name="A" unicode="A" horiz-adv-x="465" 
d="M391 0l-65 162h-187l-65 -162h-74l213 528h41l211 -528h-74zM233 396l-68 -166h134z" />
    <glyph glyph-name="B" unicode="B" horiz-adv-x="380" 
d="M366 155q0 -41 -14.5 -70t-39 -48t-57 -28t-67.5 -9h-149v528h121q72 0 117 -35t45 -114q0 -29 -8 -51.5t-28 -41.5q38 -20 59 -54t21 -77zM252 384q0 45 -27.5 61t-76.5 16h-40v-155h40q22 0 41 2.5t33 10.5t22 23.5t8 41.5zM296 154q0 23 -10.5 42t-28.5 28
q-19 10 -44.5 12t-50.5 2h-54v-172h61q27 0 50.5 4t40.5 14.5t26.5 27t9.5 42.5z" />
    <glyph glyph-name="C" unicode="C" horiz-adv-x="467" 
d="M454 51q-45 -33 -84.5 -45.5t-85.5 -12.5q-55 0 -104.5 21.5t-87 58t-59.5 85.5t-22 105t22 105.5t59.5 86.5t87 58.5t105.5 21.5q42 0 83 -12.5t86 -46.5l-37 -55q-40 30 -72.5 38.5t-61.5 8.5q-41 0 -78 -17t-64.5 -45.5t-43.5 -66t-16 -79.5q0 -39 16.5 -75.5
t44.5 -64t64.5 -44.5t76.5 -17q29 0 61.5 9t72.5 39z" />
    <glyph glyph-name="D" unicode="D" horiz-adv-x="434" 
d="M424 263q0 -61 -21 -109.5t-58 -82.5t-88 -52.5t-110 -18.5h-107v528h107q60 0 111 -18.5t88 -52.5t57.5 -83.5t20.5 -110.5zM354 263q0 45 -15.5 82t-43 62.5t-65.5 39.5t-84 14h-37v-395h37q45 0 83.5 14t66 39.5t43 62t15.5 81.5z" />
    <glyph glyph-name="E" unicode="E" horiz-adv-x="337" 
d="M39 0v528h272v-67h-203v-141h197v-67h-197v-187h203v-66h-272z" />
    <glyph glyph-name="F" unicode="F" horiz-adv-x="294" 
d="M109 461v-141h166v-67h-166v-253h-70v528h240v-67h-170z" />
    <glyph glyph-name="G" unicode="G" horiz-adv-x="573" 
d="M559 264q0 -56 -20 -105.5t-55.5 -86t-84.5 -58t-107 -21.5q-57 0 -107.5 21t-88 58t-59.5 86.5t-22 105.5t22 105.5t59.5 86t88 58t107.5 21.5q72 0 133 -34t107 -100l-56 -42q-74 107 -184 107q-43 0 -80.5 -16t-65.5 -43t-44.5 -64t-16.5 -79t16.5 -79t44.5 -64
t65.5 -43t80.5 -16q37 0 70 12.5t58.5 35t42.5 53t23 66.5h-215v70h287q1 -18 1 -24v-11z" />
    <glyph glyph-name="H" unicode="H" horiz-adv-x="474" 
d="M366 0v252h-258v-252h-69v528h69v-208h258v208h69v-528h-69z" />
    <glyph glyph-name="I" unicode="I" horiz-adv-x="157" 
d="M43 0v528h71v-528h-71z" />
    <glyph glyph-name="J" unicode="J" horiz-adv-x="153" 
d="M114 -19q0 -23 -8.5 -43t-23.5 -35t-35 -24t-43 -9t-43 9t-35 24l49 49q13 -12 29 -12q17 0 28.5 12t11.5 29v547h70v-547z" />
    <glyph glyph-name="K" unicode="K" horiz-adv-x="413" 
d="M327 0l-219 222v-222h-69v528h69v-202l204 202h96l-256 -254l272 -274h-97z" />
    <glyph glyph-name="L" unicode="L" horiz-adv-x="235" 
d="M40 0v528h69v-462h124v-66h-193z" />
    <glyph glyph-name="M" unicode="M" horiz-adv-x="613" 
d="M542 0l-66 340l-3 31l-10 -32l-135 -339h-40l-136 338l-10 34l-4 -33l-68 -339h-69l107 528h40l159 -397l159 397h40l106 -528h-70z" />
    <glyph glyph-name="N" unicode="N" horiz-adv-x="556" 
d="M517 0h-43l-366 402v-402h-69v528h43l366 -399v399h69v-528zM474 -3h43h-43z" />
    <glyph glyph-name="O" unicode="O" horiz-adv-x="572" 
d="M558 264q0 -56 -21.5 -105.5t-59 -86t-87 -58t-104.5 -21.5q-56 0 -105.5 21.5t-86.5 58t-58.5 86t-21.5 105.5q0 55 21.5 104.5t58.5 86.5t86.5 58.5t105.5 21.5q55 0 104.5 -21.5t87 -58.5t59 -86.5t21.5 -104.5zM488 264q0 42 -16 79t-44 64.5t-64.5 44t-77.5 16.5
t-78 -16.5t-64.5 -44t-43.5 -64.5t-16 -79t16 -79t43.5 -65t64.5 -44.5t78 -16.5t77.5 16.5t64.5 44.5t44 65t16 79z" />
    <glyph glyph-name="P" unicode="P" horiz-adv-x="316" 
d="M312 379q0 -29 -11.5 -59.5t-35.5 -51.5q-27 -23 -59.5 -29.5t-61.5 -6.5h-36v-232h-69v528h105q29 0 60 -5.5t58 -28.5q26 -22 38 -52t12 -63zM243 381q0 20 -8 37t-22 26q-14 11 -31.5 14t-40.5 3h-33v-162h37q23 0 40.5 4t32.5 18q25 24 25 60z" />
    <glyph glyph-name="Q" unicode="Q" horiz-adv-x="571" 
d="M479 -1l-36 45q-35 -25 -75 -38t-82 -13q-56 0 -105.5 21t-86.5 58t-58.5 86t-21.5 106q0 56 21.5 105.5t59 86t87 58t105.5 21.5q55 0 104.5 -21t86.5 -58t59 -86t22 -104q0 -100 -64 -177l80 -90h-96zM488 260q0 43 -15.5 80.5t-42.5 66t-64 45t-79 16.5
q-41 0 -77.5 -16.5t-64.5 -44t-44 -64.5t-16 -79t16 -79.5t44 -65.5t64.5 -44t78.5 -16q27 0 54 10t53 27l-94 97l53 46l91 -98q21 28 32 57t11 62z" />
    <glyph glyph-name="R" unicode="R" horiz-adv-x="361" 
d="M278 0l-155 228h-15v-228h-69v528h104q30 0 62 -4t62 -25q31 -22 43.5 -53.5t12.5 -66.5q0 -63 -34 -98.5t-89 -44.5l161 -236h-83zM253 380q0 23 -10 42.5t-30 28.5q-14 7 -30.5 8.5t-32.5 1.5h-41l-1 -162h46q22 0 39 3.5t32 16.5q14 11 21 27.5t7 33.5z" />
    <glyph glyph-name="S" unicode="S" horiz-adv-x="368" 
d="M353 154q0 -35 -14.5 -64.5t-38.5 -51t-55.5 -33.5t-64.5 -12q-57 0 -99.5 34.5t-67.5 100.5l62 29q22 -54 47 -76t60 -22q20 0 38 7.5t32 21t22 31.5t8 38q0 16 -9 28.5t-22 22.5t-28.5 17.5t-27.5 14.5l-52 26t-47.5 29.5t-35 39.5t-13.5 56q0 31 10.5 57.5t29.5 45.5
t45.5 30t58.5 11q42 0 79 -21.5t66 -69.5l-53 -43q-25 38 -46.5 52.5t-47.5 14.5q-31 0 -52 -22t-21 -54q0 -15 8 -26t20 -20t25.5 -15.5t24.5 -12.5l93 -49q32 -20 49 -48t17 -67z" />
    <glyph glyph-name="T" unicode="T" horiz-adv-x="325" 
d="M197 461v-461h-69v461h-127v67h323v-67h-127z" />
    <glyph glyph-name="U" unicode="U" horiz-adv-x="448" 
d="M409 203v-19t-1 -18q-1 -29 -8.5 -55.5t-28.5 -52.5q-27 -32 -67 -49t-80 -17q-32 0 -62 9.5t-54.5 27.5t-41.5 43.5t-23 57.5q-3 17 -3.5 35.5t-0.5 37.5v325h70v-315q0 -35 3 -63.5t19 -48.5t42 -31t51 -11t52 11t42 31q16 20 18.5 48.5t2.5 63.5v315h70v-325z" />
    <glyph glyph-name="V" unicode="V" horiz-adv-x="408" 
d="M223 0h-40l-182 528h73l121 -354l9 -36l9 36l121 354h73z" />
    <glyph glyph-name="W" unicode="W" horiz-adv-x="751" 
d="M581 0h-40l-156 380l-10 33l-9 -33l-156 -380h-40l-169 528h72l115 -356l9 -38l11 37l150 357h39l148 -354l12 -39l10 40l112 353h72z" />
    <glyph glyph-name="X" unicode="X" horiz-adv-x="369" 
d="M290 0l-107 200l-105 -200h-78l144 269l-138 259h77l101 -187l99 187h78l-138 -259l145 -269h-78z" />
    <glyph glyph-name="Y" unicode="Y" horiz-adv-x="424" 
d="M248 223v-223h-72v223l-175 305h79l132 -230l132 230h79z" />
    <glyph glyph-name="Z" unicode="Z" horiz-adv-x="399" 
d="M105 66h268v-66h-354v56l267 405h-259v67h346v-55z" />
    <glyph glyph-name="bracketleft" unicode="[" horiz-adv-x="200" 
d="M28 -119v684h149v-66h-83v-551h83v-67h-149z" />
    <glyph glyph-name="backslash" unicode="\" horiz-adv-x="458" 
d="M357 0l-322 588h70l324 -588h-72z" />
    <glyph glyph-name="bracketright" unicode="]" horiz-adv-x="200" 
d="M23 -119v66h84v551h-84v67h149v-684h-149z" />
    <glyph glyph-name="asciicircum" unicode="^" horiz-adv-x="412" 
d="M339 194l-133 265l-131 -265h-69l173 351h55l173 -350z" />
    <glyph glyph-name="underscore" unicode="_" horiz-adv-x="379" 
d="M2 -94v61h375v-61h-375z" />
    <glyph glyph-name="grave" unicode="`" horiz-adv-x="204" 
d="M128 365l-109 129l77 26l85 -130z" />
    <glyph glyph-name="a" unicode="a" horiz-adv-x="428" 
d="M324 0v36q-47 -43 -118 -43q-44 0 -79 15.5t-59.5 41.5t-37.5 61.5t-13 74.5t13 73.5t37.5 60t59 40t77.5 14.5q70 0 120 -42v35h66v-367h-66zM327 189q0 54 -33.5 88.5t-90.5 34.5q-26 0 -48 -10.5t-38 -28t-25 -40t-9 -47.5q0 -27 8.5 -50.5t24.5 -41.5t38.5 -28.5
t50.5 -10.5q29 0 51.5 10.5t38.5 28.5t24 42.5t8 52.5z" />
    <glyph glyph-name="b" unicode="b" horiz-adv-x="429" 
d="M412 187q0 -39 -13 -74.5t-38 -61.5t-60 -41.5t-78 -15.5q-32 0 -63.5 10.5t-55.5 32.5v-37h-67v596h67v-260q25 21 56.5 30.5t63.5 9.5q43 0 78 -14.5t59.5 -40t37.5 -60t13 -74.5zM346 187q0 25 -9 48t-25 40.5t-38.5 28t-48.5 10.5q-60 0 -92 -36t-32 -91
q0 -27 8.5 -51t24 -42t38 -28t51.5 -10q28 0 51 10.5t39 28.5t24.5 41.5t8.5 50.5z" />
    <glyph glyph-name="c" unicode="c" horiz-adv-x="353" 
d="M345 35q-36 -24 -67.5 -33.5t-63.5 -9.5q-42 0 -78.5 15t-62.5 41t-41 61t-15 75t15 74.5t41.5 60t62.5 40.5t78 15q32 0 63.5 -9t67.5 -34l-28 -58q-32 23 -55.5 31.5t-48.5 8.5q-27 0 -51 -10.5t-41 -28t-27 -41t-10 -49.5t10 -49.5t27 -41.5t41 -28.5t51 -10.5
q25 0 48.5 8t55.5 31z" />
    <glyph glyph-name="d" unicode="d" horiz-adv-x="429" 
d="M326 0v35q-25 -21 -56.5 -31t-62.5 -10q-44 0 -79 15.5t-60 41.5t-38 61.5t-13 74.5q0 40 13 74.5t37.5 60t59 40t78.5 14.5q33 0 64.5 -10.5t56.5 -31.5v262h66v-596h-66zM328 191q0 54 -33.5 88.5t-90.5 34.5q-26 0 -48 -10.5t-38 -28t-25 -40.5t-9 -48
q0 -27 8.5 -50.5t24.5 -41.5t38.5 -28.5t50.5 -10.5q29 0 52 10.5t38.5 29t23.5 43t8 52.5z" />
    <glyph glyph-name="e" unicode="e" horiz-adv-x="405" 
d="M84 165q5 -52 39 -81.5t85 -29.5q70 0 118 82l57 -31q-33 -60 -77.5 -86.5t-101.5 -26.5q-43 0 -77.5 15.5t-59 42t-37.5 61t-13 73.5q0 38 13 72.5t37.5 60.5t59 41.5t77.5 15.5t77.5 -16t58 -43.5t36 -66t12.5 -83.5h-304zM318 226q-11 37 -41.5 61.5t-72.5 24.5
t-74 -24.5t-43 -61.5h231z" />
    <glyph glyph-name="f" unicode="f" horiz-adv-x="189" 
d="M111 303v-303h-67v303h-39v62h39v97q0 18 2 44t14 46q14 25 39.5 37t52.5 12q9 0 20.5 -1.5t25.5 -7.5l-16 -56q-14 3 -28 3q-18 0 -27 -7.5t-12.5 -19t-3.5 -25.5v-27v-95h88v-62h-88z" />
    <glyph glyph-name="g" unicode="g" horiz-adv-x="429" 
d="M392 39q0 -39 -5 -83t-33 -81q-27 -36 -67.5 -53.5t-85.5 -17.5q-36 0 -69 10.5t-59 32t-42.5 54.5t-19.5 78h66q5 -57 39 -85.5t82 -28.5q41 0 66.5 14t39 37t18 53t4.5 63q-54 -43 -123 -43q-42 0 -76.5 16t-58.5 42.5t-37.5 61t-13.5 72.5q0 39 14 74t39.5 61t60.5 41
t77 15q69 0 118 -43v36h66v-326zM328 187q0 26 -9 48.5t-25 39t-39.5 26t-51.5 9.5q-26 0 -48 -10.5t-37.5 -28t-24.5 -40.5t-9 -48q0 -27 8.5 -51t24.5 -42t38.5 -28.5t50.5 -10.5q29 0 52 10.5t38.5 29t23.5 43t8 53.5z" />
    <glyph glyph-name="h" unicode="h" horiz-adv-x="375" 
d="M338 0h-67v218q0 22 -2.5 40t-10 30t-22.5 18.5t-40 6.5q-29 0 -47 -11t-28 -29t-14 -42t-4 -50v-181h-66v597h66v-257q41 35 96 35q41 0 68 -11.5t42.5 -32.5t22 -50t6.5 -63v-218z" />
    <glyph glyph-name="i" unicode="i" horiz-adv-x="150" 
d="M123 490q0 -20 -14 -33.5t-34 -13.5t-33.5 13.5t-13.5 33.5q0 19 13.5 33t33.5 14t34 -14t14 -33zM41 0v365h68v-365h-68z" />
    <glyph glyph-name="j" unicode="j" horiz-adv-x="150" 
d="M123 490q0 -20 -14 -33.5t-34 -13.5t-33.5 13.5t-13.5 33.5q0 19 13.5 33t33.5 14t34 -14t14 -33zM41 -214v579h68v-579h-68z" />
    <glyph glyph-name="k" unicode="k" horiz-adv-x="345" 
d="M269 0l-160 162l-3 -3v-159h-67v597h67v-345l114 114h90l-156 -159l206 -207h-91z" />
    <glyph glyph-name="l" unicode="l" horiz-adv-x="150" 
d="M41 0v598h68v-598h-68z" />
    <glyph glyph-name="m" unicode="m" horiz-adv-x="556" 
d="M517 0h-68v224q0 42 -10.5 65t-50.5 23q-44 0 -60.5 -32t-16.5 -78v-202h-66v215q0 22 -2.5 39.5t-9.5 30.5t-20 20t-33 7q-19 0 -33 -11.5t-23 -29t-13.5 -39t-4.5 -40.5v-192h-67v365h67l-1 -34q17 23 38.5 33t44.5 10q63 0 96 -48q21 26 47.5 37t56.5 11
q40 0 65.5 -13t39.5 -34.5t19 -49t5 -57.5v-220z" />
    <glyph glyph-name="n" unicode="n" horiz-adv-x="372" 
d="M266 0v216q0 25 -2.5 43t-10 29.5t-21.5 16.5t-37 5t-40 -12.5t-28 -32t-16.5 -42t-5.5 -43.5v-180h-66v365h66v-37q20 21 43.5 33t49.5 12q40 0 66 -11.5t41.5 -32t21.5 -49.5t6 -64v-216h-67z" />
    <glyph glyph-name="o" unicode="o" horiz-adv-x="423" 
d="M406 185q0 -41 -15 -76t-41.5 -61t-62 -40.5t-77.5 -14.5q-40 0 -75 15t-61.5 41t-41.5 61t-15 74t15 74t41.5 61.5t61.5 41.5t75 15q42 0 77.5 -14.5t62 -40.5t41.5 -61t15 -75zM340 184q0 28 -10 51.5t-28 40.5t-42 26.5t-52 9.5q-26 0 -48.5 -10t-39 -27.5t-26 -41
t-9.5 -49.5t9.5 -49t26.5 -40.5t39 -28t48 -10.5q28 0 52 10t42 27t28 40.5t10 50.5z" />
    <glyph glyph-name="p" unicode="p" horiz-adv-x="422" 
d="M406 180q0 -40 -12.5 -74.5t-36.5 -60t-58 -40t-77 -14.5q-31 0 -60.5 10t-55.5 33v-249h-67v580h67v-34q26 23 55.5 32.5t59.5 9.5q43 0 77.5 -15.5t58.5 -41.5t36.5 -61.5t12.5 -74.5zM338 179q0 27 -8.5 51t-23.5 42t-36.5 29t-47.5 11q-57 0 -87 -39.5t-30 -96.5
q0 -54 32 -88t86 -34q25 0 46 10t36.5 27t24 39.5t8.5 48.5z" />
    <glyph glyph-name="q" unicode="q" horiz-adv-x="422" 
d="M316 -214v247q-26 -23 -55.5 -32.5t-59.5 -9.5q-43 0 -77 14.5t-58 40t-37 59.5t-13 74q0 39 13 74.5t37 62t58.5 42t77.5 15.5q29 0 58.5 -9.5t55.5 -31.5v33h67v-579h-67zM318 179q0 27 -8.5 51t-24 42t-37 29t-47.5 11q-27 0 -49 -10.5t-37 -29t-23 -43.5t-8 -53
q0 -54 32.5 -88t86.5 -34q25 0 46 10t36.5 27t24 39.5t8.5 48.5z" />
    <glyph glyph-name="r" unicode="r" horiz-adv-x="232" 
d="M202 295q-13 7 -18.5 8t-7.5 1q-23 0 -36.5 -12t-21 -31t-10 -41t-2.5 -41v-180h-67v366h67v-34q11 15 30.5 28t39.5 13q11 0 24 -2t37 -11z" />
    <glyph glyph-name="s" unicode="s" horiz-adv-x="285" 
d="M270 112q0 -27 -10 -49.5t-27 -38t-40 -24.5t-49 -9q-48 0 -85 29t-52 86l61 23q13 -42 31.5 -58.5t44.5 -16.5q24 0 41.5 17t17.5 42q0 22 -14 32t-40 19q-20 7 -40 16t-36 21.5t-25.5 29.5t-9.5 41q0 23 9 42t24 32.5t34.5 20.5t41.5 7q29 0 58 -16.5t51 -58.5l-57 -32
q-15 27 -28 35.5t-25 8.5q-16 0 -28 -11t-12 -25q0 -12 9.5 -21t22.5 -15t27 -10.5t23 -8.5q38 -16 60 -39.5t22 -68.5z" />
    <glyph glyph-name="t" unicode="t" horiz-adv-x="215" 
d="M135 302v-302h-67v302h-54v63h54v132h67v-132h76v-63h-76z" />
    <glyph glyph-name="u" unicode="u" horiz-adv-x="372" 
d="M333 149q0 -35 -7 -64t-24 -50t-45 -32.5t-71 -11.5t-71 11.5t-45 32.5t-24 50t-7 64v216h66v-216q0 -49 15.5 -72t65.5 -23q49 0 64.5 23t15.5 72v216h67v-216z" />
    <glyph glyph-name="v" unicode="v" horiz-adv-x="365" 
d="M204 0h-41l-162 365h71l112 -250l108 250h72z" />
    <glyph glyph-name="w" unicode="w" horiz-adv-x="598" 
d="M442 0h-41l-102 242l-97 -242h-42l-159 365h72l108 -249l101 249h38l103 -249l105 249h69z" />
    <glyph glyph-name="x" unicode="x" horiz-adv-x="380" 
d="M299 0l-110 142l-110 -142h-81l149 193l-138 172h81l100 -123l96 123h84l-136 -172l148 -193h-83z" />
    <glyph glyph-name="y" unicode="y" horiz-adv-x="411" 
d="M162 -214h-71l87 205l-177 374h72l141 -294l125 294h71z" />
    <glyph glyph-name="z" unicode="z" horiz-adv-x="374" 
d="M29 0v55l220 248h-210v62h306v-52l-221 -251h221v-62h-316z" />
    <glyph glyph-name="braceleft" unicode="{" horiz-adv-x="206" 
d="M199 -119q-41 2 -66.5 10.5t-39.5 25t-19.5 40t-5.5 55.5v113q0 23 -12 39.5t-38 36.5v46q27 20 38 35t11 38v113q0 32 5.5 56t20 40.5t40 25t66.5 10.5v-65q-38 -1 -52 -8t-14 -32v-121q0 -47 -11 -72.5t-31 -43.5q20 -18 30.5 -44.5t10.5 -74.5v-119q0 -26 14.5 -32.5
t52.5 -6.5v-65z" />
    <glyph glyph-name="bar" unicode="|" horiz-adv-x="209" 
d="M71 -7v591h67v-591h-67z" />
    <glyph glyph-name="braceright" unicode="}" horiz-adv-x="206" 
d="M188 201q-26 -20 -37.5 -36.5t-11.5 -39.5v-113q0 -32 -5.5 -55.5t-20 -40t-40.5 -25t-66 -10.5v64q38 0 52 7t14 33v119q0 48 11 74.5t31 44.5q-20 18 -30.5 43.5t-10.5 72.5v121q0 25 -14.5 32t-52.5 8v65q40 -2 66 -10.5t40 -25t19.5 -40.5t5.5 -56v-113
q0 -23 11.5 -38t38.5 -35v-46z" />
    <glyph glyph-name="asciitilde" unicode="~" horiz-adv-x="431" 
d="M413 222q-26 -42 -54 -70.5t-68 -28.5q-20 0 -39 8.5t-37 18.5t-35.5 18.5t-36.5 8.5q-15 0 -28 -12t-34 -44l-62 31q14 19 28 36.5t28.5 30t31 20t36.5 7.5t42 -8.5t42 -18t37 -18t28 -8.5q14 0 27.5 13t31.5 50z" />
    <glyph glyph-name="uni00A0" unicode="&#xa0;" horiz-adv-x="250" 
 />
    <glyph glyph-name="cent" unicode="&#xa2;" horiz-adv-x="455" 
d="M369 146q-23 -20 -47.5 -33t-50.5 -17v-51h-60v53q-60 12 -95.5 59t-35.5 111q0 31 9.5 59.5t27 50.5t41.5 37.5t53 21.5v53h60v-50q51 -8 99 -48l-37 -53q-20 17 -34 25.5t-28 12.5v-219q13 4 27.5 13t34.5 27zM211 373q-31 -11 -50 -40.5t-19 -64.5t19.5 -64.5
t49.5 -41.5v211z" />
    <glyph glyph-name="sterling" unicode="&#xa3;" horiz-adv-x="402" 
d="M313 338q-1 63 -31 95.5t-72 32.5t-67 -30t-25 -78v-73h100v-65h-101v-156l246 1v-66h-346v65h32v156h-32v65h32v73q0 36 11.5 68.5t32.5 56.5t50.5 38.5t66.5 14.5q36 0 67 -14.5t54.5 -40.5t37 -62.5t13.5 -80.5h-69z" />
    <glyph glyph-name="yen" unicode="&#xa5;" horiz-adv-x="424" 
d="M321 348h70v-63h-106l-25 -41h130v-63h-142v-181h-71v181h-140v63h128q-4 5 -7.5 12t-7.5 14l-9 15h-104v63h68l-104 180h79l132 -230l133 230h79z" />
    <glyph glyph-name="copyright" unicode="&#xa9;" horiz-adv-x="560" 
d="M404 140q-26 -21 -54.5 -33t-58.5 -12q-35 0 -64.5 13t-50.5 36t-33 53t-12 65q0 34 12 64.5t34 53t51 35.5t64 13q60 0 112 -44l-37 -46q-23 20 -40.5 26.5t-35.5 6.5q-21 0 -40 -8.5t-32.5 -23.5t-21.5 -35t-8 -42t8 -42t22 -35t32 -24t39 -9q17 0 35 7t42 27zM555 265
q0 -57 -21.5 -107.5t-59 -88t-87 -59t-106.5 -21.5t-107.5 21.5t-88 59t-59 88t-21.5 107.5t21.5 106.5t59 87t88 59t107.5 21.5t106.5 -21.5t87 -59t59 -87t21.5 -106.5zM498 265q0 45 -17 84.5t-46.5 69t-69 46.5t-84.5 17q-46 0 -86 -17t-69.5 -46.5t-46.5 -69t-17 -84.5
q0 -46 17 -86t46.5 -69.5t69.5 -46.5t86 -17q45 0 84.5 17t69 46.5t46.5 69.5t17 86z" />
    <glyph glyph-name="guillemotleft" unicode="&#xab;" horiz-adv-x="311" 
d="M216 224l83 -100l-42 -42l-119 142l119 142l42 -42zM133 82l-120 142l120 142l44 -42l-84 -100l84 -100z" />
    <glyph glyph-name="registered" unicode="&#xae;" horiz-adv-x="571" 
d="M569 265q0 -58 -22.5 -109.5t-60.5 -89.5t-90 -60.5t-110 -22.5q-59 0 -111 22t-90.5 60.5t-61 89.5t-22.5 110q0 58 22.5 109t61 89t90.5 60t111 22q58 0 110 -22t90 -60t60.5 -89t22.5 -109zM512 263q0 47 -17.5 88t-48.5 71.5t-72 48t-88 17.5q-48 0 -89.5 -17.5
t-72 -47.5t-48.5 -71t-18 -87q0 -47 18 -88t48.5 -71.5t72 -48t89.5 -17.5q47 0 88 17.5t71.5 48t48.5 71t18 86.5zM362 105l-82 131h-51v-131h-58v312h141q63 0 90 -23.5t27 -66.5t-24.5 -64t-60.5 -26l88 -132h-70zM373 328q0 12 -6.5 18.5t-16.5 9.5t-22 3.5t-24 0.5h-76
v-68h47h15h26t26 3q15 4 23 11t8 22z" />
    <glyph glyph-name="guillemotright" unicode="&#xbb;" horiz-adv-x="311" 
d="M180 82l-44 42l83 100l-83 100l44 42l119 -142zM56 82l-43 42l83 100l-83 100l43 42l119 -142z" />
    <glyph glyph-name="onequarter" unicode="&#xbc;" horiz-adv-x="542" 
d="M482 -1h-52v50h-143v24l166 237h29v-211h34v-50h-34v-50zM65 0l373 527h62l-372 -527h-63zM94 478h-52v50h103v-305h-51v255zM367 99h63v92z" />
    <glyph glyph-name="onehalf" unicode="&#xbd;" horiz-adv-x="542" 
d="M471 213q0 20 -14 33t-34 13t-34 -14.5t-14 -49.5h-52q0 29 8.5 50.5t23 35.5t32.5 21t36 7q42 0 71 -27.5t29 -69.5q0 -32 -18 -56t-38 -46l-56 -61h111v-49h-188v40q26 27 55 58.5t52 58.5q11 12 20.5 27t9.5 29zM46 0l373 528h61l-372 -528h-62zM94 479h-51v49h102
v-305h-51v256z" />
    <glyph glyph-name="threequarters" unicode="&#xbe;" horiz-adv-x="542" 
d="M85 0l373 528h61l-371 -528h-63zM482 0h-52v50h-143v24l167 238l28 -1v-212h34v-49h-34v-50zM131 221q-37 0 -65 24.5t-29 78.5h50q4 -31 15.5 -43t28.5 -12q19 0 32.5 14t13.5 33q0 18 -14 29.5t-48 12.5v48q32 2 45 13t13 28q0 16 -11 26.5t-27 10.5q-15 0 -25 -10.5
t-12 -41.5h-52q9 101 90 101q37 0 63 -25t26 -62t-28 -62q32 -26 32 -67q0 -42 -28 -69t-70 -27zM367 99h63v93z" />
    <glyph glyph-name="multiply" unicode="&#xd7;" horiz-adv-x="380" 
d="M314 20l-124 124l-124 -124l-46 46l124 124l-124 124l46 46l124 -124l124 124l46 -46l-124 -124l124 -124z" />
    <glyph glyph-name="divide" unicode="&#xf7;" horiz-adv-x="380" 
d="M239 306q0 -20 -14.5 -34.5t-34.5 -14.5t-34.5 14.5t-14.5 34.5t14.5 34.5t34.5 14.5t34.5 -14.5t14.5 -34.5zM18 158v64h344v-64h-344zM239 74q0 -20 -14.5 -34.5t-34.5 -14.5t-34.5 14.5t-14.5 34.5t14.5 34.5t34.5 14.5t34.5 -14.5t14.5 -34.5z" />
    <glyph glyph-name="kokaithai" unicode="&#xe01;" horiz-adv-x="460" 
d="M420 0h-67v259q0 60 -40.5 96.5t-103.5 36.5q-33 0 -63.5 -16t-50.5 -40l30 -33v-303h-67v281l-46 50q32 57 84 91t113 34q46 0 85 -14.5t67 -41t43.5 -62.5t15.5 -79v-259z" />
    <glyph glyph-name="khokhaithai" unicode="&#xe02;" horiz-adv-x="400" 
d="M360 139q0 -30 -12 -57t-32 -46.5t-47.5 -31t-58.5 -11.5q-32 0 -59.5 11.5t-47.5 31t-32 46.5t-12 57q0 31 7.5 51.5t21 35.5t31.5 27t40 26q16 10 25 21.5t9 31.5q0 26 -19 44t-45 18q-19 0 -35 -12t-32 -41l-55 36q23 42 54 61t68 19q27 0 50.5 -10t41 -27t27.5 -40
t10 -48q0 -30 -8 -49t-21.5 -32.5t-31.5 -24t-38 -23.5q-17 -12 -25.5 -26.5t-8.5 -37.5q0 -33 24.5 -57t60.5 -24q35 0 59.5 23.5t24.5 57.5v311h66v-311z" />
    <glyph glyph-name="khokhuatthai" unicode="&#xe03;" horiz-adv-x="395" 
d="M355 140q0 -30 -12 -57t-32 -47t-47.5 -31.5t-58.5 -11.5q-32 0 -59.5 11.5t-47.5 31.5t-32 46.5t-12 57.5q0 35 10 57.5t25 37.5t32 25.5t32 20.5t25 22.5t10 32.5q0 27 -20 45l-57 -48l-96 79l39 45l55 -45l52 44q45 -17 68.5 -48t23.5 -73q0 -32 -10 -51.5t-24.5 -33
t-32 -22.5t-32 -20t-24.5 -26.5t-10 -41.5q0 -34 24.5 -58t60.5 -24q35 0 59.5 23.5t24.5 58.5v310h66v-310z" />
    <glyph glyph-name="khokhwaithai" unicode="&#xe04;" horiz-adv-x="450" 
d="M410 0h-67v276q0 24 -9.5 44.5t-25.5 36t-37.5 24.5t-45.5 9q-25 0 -46.5 -9t-37.5 -24.5t-25 -36t-9 -44.5v-17h118v-64h-118v-195h-67v276q0 37 14.5 69.5t39.5 57t59 38.5t72 14t72 -14t59 -38.5t39.5 -57t14.5 -69.5v-276z" />
    <glyph glyph-name="khokhonthai" unicode="&#xe05;" horiz-adv-x="472" 
d="M432 0h-67v287q0 29 -12.5 54t-34.5 42l-82 -74l-81 74q-48 -36 -48 -97v-26h128v-65h-128v-195h-67v287q0 57 32.5 103t89.5 73l74 -66l74 66q58 -27 90 -73t32 -103v-287z" />
    <glyph glyph-name="khorakhangthai" unicode="&#xe06;" horiz-adv-x="454" 
d="M413 170q0 -37 -14.5 -69.5t-39.5 -56.5t-59 -38t-72 -14q-35 0 -63 14t-55 38v-45h-67v185q0 45 16 70.5t35.5 42t35.5 29t16 31.5q0 7 -2.5 13t-6.5 11l-46 -41l-88 74l39 45l48 -38l44 37q38 -15 58.5 -41.5t18.5 -59.5q-1 -34 -17 -52.5t-34.5 -33.5t-34 -33
t-15.5 -49v-15q0 -24 9 -45t25 -37t37.5 -25.5t46.5 -9.5t46.5 9t37.5 24.5t25.5 36t9.5 44.5v279h66v-280z" />
    <glyph glyph-name="ngonguthai" unicode="&#xe07;" horiz-adv-x="372" 
d="M332 92q0 -21 -7.5 -38.5t-21 -31t-31.5 -21t-39 -7.5q-30 0 -54.5 16t-35.5 42l-129 273l62 24l128 -272q8 -17 29 -17q14 0 23 9t9 22v294h-62v65h129v-358z" />
    <glyph glyph-name="chochanthai" unicode="&#xe08;" horiz-adv-x="411" 
d="M371 281q0 -29 -11 -59l-83 -222h-70l-100 285h70l66 -189l53 147q8 21 8 38q0 22 -9 42t-24.5 35t-36 23.5t-43.5 8.5q-42 0 -73.5 -27.5t-38.5 -78.5h-67q4 39 19.5 70.5t39 54t54.5 34.5t66 12q37 0 70 -13.5t57.5 -37t38.5 -55.5t14 -68z" />
    <glyph glyph-name="chochingthai" unicode="&#xe09;" horiz-adv-x="429" 
d="M388 0h-66v40q-23 -23 -49.5 -35t-58.5 -12q-36 0 -67.5 13t-55.5 35.5t-37.5 53.5t-13.5 66v45h-32v65h99v-110q0 -45 31 -74.5t76 -29.5q22 0 42 8.5t34.5 23.5t23 34.5t8.5 42.5v116q0 22 -9 42t-24.5 35t-36 23.5t-43.5 8.5q-36 0 -66.5 -20.5t-43.5 -60.5h-69
q20 72 69 109t110 37q37 0 69.5 -13.5t57 -37.5t38.5 -55.5t14 -67.5v-282z" />
    <glyph glyph-name="chochangthai" unicode="&#xe0a;" horiz-adv-x="403" 
d="M333 354q12 -11 20.5 -31.5t8.5 -43.5v-139q0 -30 -12 -57t-32 -47t-47.5 -31.5t-58.5 -11.5q-32 0 -59.5 11.5t-47.5 31.5t-32 47t-12 57q0 31 7.5 51.5t21 35.5t31.5 27t40 26q16 10 25 21.5t9 31.5q0 26 -18.5 44t-45.5 18q-19 0 -35 -12t-32 -41l-55 37q47 80 122 80
q45 0 79 -26.5t45 -66.5l116 126l50 -42zM260 333q0 -31 -10 -51t-24.5 -33.5t-32 -23t-32 -21t-24.5 -26t-10 -38.5q0 -34 24.5 -58.5t60.5 -24.5q18 0 33 6.5t26.5 18t18 26.5t6.5 32v139q0 18 -8.5 35t-28.5 35q0 -4 0.5 -8t0.5 -8z" />
    <glyph glyph-name="sosothai" unicode="&#xe0b;" horiz-adv-x="393" 
d="M323 355q12 -11 20.5 -31.5t8.5 -43.5v-140q0 -30 -12 -57t-32 -47t-47.5 -31.5t-58.5 -11.5q-32 0 -59.5 11.5t-47.5 31.5t-32 47t-12 57q0 31 7.5 51.5t21 36t31.5 28t40 27.5q16 11 25 23t9 32q0 27 -20 45l-59 -51l-97 81l40 45l55 -45l54 46q36 -14 58 -38t30 -54
l115 125l50 -41zM250 338q0 -32 -10 -52t-24.5 -34t-32 -24.5t-32 -22t-24.5 -26.5t-10 -39q0 -34 24.5 -58.5t60.5 -24.5q18 0 33 6.5t26.5 18t18 26.5t6.5 32v139q0 18 -8.5 34.5t-28.5 34.5q1 -4 1 -10z" />
    <glyph glyph-name="chochoethai" unicode="&#xe0c;" horiz-adv-x="746" 
d="M705 157q0 -40 -13 -70.5t-35.5 -51.5t-52.5 -31.5t-64 -10.5q-31 0 -60 16t-52 39v-48h-69v259q0 30 -10.5 54.5t-30 42t-46.5 27t-60 9.5q-34 0 -65 -16t-52 -40l31 -33l-1 -238h67v-65h-134v281l-47 50q33 57 85.5 91.5t115.5 34.5q47 0 86.5 -15t68 -41t44.5 -62.5
t16 -79.5v-66q0 -30 11.5 -55t28.5 -43t36.5 -28t36.5 -10q42 0 69.5 24.5t27.5 75.5v294h68v-294z" />
    <glyph glyph-name="yoyingthai" unicode="&#xe0d;" horiz-adv-x="740" 
d="M700 6q0 -35 -13.5 -65.5t-37 -53.5t-55.5 -36.5t-69 -13.5q-103 0 -161 102l57 35q40 -72 104 -72q22 0 42 8t34 22.5t22.5 33.5t8.5 40v25q-44 -38 -102 -38q-36 0 -67 13t-54.5 35.5t-36.5 52.5t-13 64v102q0 60 -40.5 96t-106.5 36q-34 0 -65 -16t-52 -40l31 -32
v-239h66v-65h-134v281l-47 50q33 57 85.5 91.5t115.5 34.5q48 0 87.5 -15t68 -41t44 -62.5t15.5 -79.5v-102q0 -42 29 -70.5t74 -28.5t73.5 27.5t28.5 72.5v292h68v-288v-156z" />
    <glyph glyph-name="dochadathai" unicode="&#xe0e;" horiz-adv-x="469" 
d="M322 -170q-35 26 -66.5 38t-65.5 12q-33 0 -65 -12t-67 -38l-41 49q45 34 86.5 49.5t86.5 15.5q68 0 124 -31l48 47v299q0 30 -10.5 54t-30 41.5t-46 27t-57.5 9.5q-33 0 -63.5 -15.5t-51.5 -40.5l31 -32v-303h-110v65h43v215l-46 51q32 57 83 91t114 34q46 0 84.5 -14.5
t66.5 -41t43.5 -62.5t15.5 -79l1 -325z" />
    <glyph glyph-name="topatakthai" unicode="&#xe0f;" horiz-adv-x="469" 
d="M312 -172l-80 71l-79 -71l-121 112l43 43l79 -71l78 70l78 -70l52 46v301q0 29 -10.5 53.5t-30 42t-46 27t-57.5 9.5q-33 0 -63.5 -15.5t-51.5 -40.5l31 -32v-303h-110v65h43v215l-46 51q32 57 83 91t114 34q46 0 85 -15t67 -41t43.5 -62.5t15.5 -79.5v-322z" />
    <glyph glyph-name="thothanthai" unicode="&#xe10;" horiz-adv-x="411" 
d="M334 387q17 -23 27 -50t10 -56t-11 -60l-83 -221h-70l-100 285h70l66 -190l54 147q3 10 5 19.5t2 19.5q0 22 -9 42t-24 35t-35.5 23.5t-44.5 8.5q-42 0 -73 -27.5t-38 -78.5h-67q4 39 19.5 70.5t39 54t54 34.5t65.5 12q26 0 48.5 -6.5t42.5 -17.5l54 61l52 -44zM312 -181
l-74 70l-75 -70l-116 111l39 40l78 -73l75 70l73 -68l13 11v59h62v-81z" />
    <glyph glyph-name="thonangmonthothai" unicode="&#xe11;" horiz-adv-x="459" 
d="M418 0h-66v328q0 17 -6.5 31t-15.5 22l-222 -381h-60v178q0 39 12.5 65t27.5 45t27.5 34.5t12.5 34.5q0 14 -8 24l-43 -41l-86 74l39 45l45 -38l42 37q76 -30 76 -98q0 -29 -12.5 -49.5t-27.5 -40t-27.5 -40t-12.5 -48.5v-47l186 319q60 -6 89.5 -42.5t29.5 -87.5v-324z
" />
    <glyph glyph-name="thophuthaothai" unicode="&#xe12;" horiz-adv-x="761" 
d="M720 157q0 -40 -13 -70.5t-35.5 -51t-52.5 -31t-64 -10.5q-30 0 -60 16t-52 40v-50h-69v294q0 29 -13 51.5t-35 36.5l-79 -63l-79 65q-32 -20 -54 -59.5t-22 -105.5q0 -35 8 -64t23 -50.5t36 -33.5t47 -12q13 0 23.5 5.5t28.5 21.5l48 -46q-26 -23 -50 -34.5t-50 -11.5
q-45 0 -79 18t-57 48.5t-34.5 71.5t-11.5 87q0 96 43 156t111 85l69 -56l69 55q57 -21 91.5 -62t35.5 -101v-108q0 -28 11 -52t28 -41.5t36.5 -27.5t36.5 -10q42 0 69.5 24.5t27.5 75.5v294h68v-294z" />
    <glyph glyph-name="nonenthai" unicode="&#xe13;" horiz-adv-x="741" 
d="M632 0v42q-46 -49 -110 -49q-35 0 -64.5 10.5t-51 31.5t-34 51.5t-12.5 70.5v102q0 30 -11 54.5t-30.5 41.5t-46.5 26.5t-60 9.5q-34 0 -65 -15.5t-52 -39.5l31 -33v-238h66v-65h-134v280l-47 51q33 57 85.5 91t115.5 34q47 0 86.5 -14.5t68 -41t44.5 -62.5t16 -79
l1 -102q0 -51 27 -75.5t67 -24.5q20 0 39.5 9.5t35.5 26t25.5 38.5t9.5 47v272h68v-450h-68z" />
    <glyph glyph-name="dodekthai" unicode="&#xe14;" horiz-adv-x="472" 
d="M364 0v281q0 36 -20 62t-50.5 38.5t-65.5 10.5t-65.5 -21.5t-50.5 -58t-20 -97.5q0 -33 8 -61.5t23 -49.5t36 -32.5t47 -11.5q13 0 23.5 5.5t28.5 21.5l48 -46q-26 -23 -50 -34.5t-50 -11.5q-45 0 -79 17t-57 47t-34.5 70t-11.5 86q0 63 19 109t50 75t70 43t79 14
q36 0 70 -12t60.5 -34t43 -54.5t16.5 -72.5v-283h-68z" />
    <glyph glyph-name="totaothai" unicode="&#xe15;" horiz-adv-x="475" 
d="M368 0v292q0 29 -13 52t-35 37l-77 -63l-78 64q-31 -20 -52.5 -61t-21.5 -104q0 -34 8 -62.5t22.5 -49.5t35 -33t46.5 -12q11 0 22 5.5t28 22.5l48 -46q-49 -46 -98 -46q-44 0 -77.5 17t-56 47t-34 70t-11.5 87q0 97 42 157t109 84l68 -56l68 56q57 -21 90 -62.5
t33 -101.5v-294h-66z" />
    <glyph glyph-name="thothungthai" unicode="&#xe16;" horiz-adv-x="460" 
d="M420 0h-67v259q0 60 -40.5 96.5t-103.5 36.5q-33 0 -63.5 -16t-51.5 -40l30 -33v-239l66 1v-65h-132v281l-46 50q34 57 84 91t113 34q46 0 85 -14.5t67 -41t43.5 -62.5t15.5 -79v-259z" />
    <glyph glyph-name="thothahanthai" unicode="&#xe17;" horiz-adv-x="450" 
d="M410 0h-67v294q0 24 -8.5 42.5t-23 31t-33 19t-38.5 6.5q-24 0 -48 -10.5t-42.5 -28.5t-30.5 -42t-12 -51v-261h-67v450h67v-58q28 31 63.5 48.5t70.5 17.5q32 0 62.5 -10.5t54 -31t38 -51.5t14.5 -71v-294z" />
    <glyph glyph-name="thothongthai" unicode="&#xe18;" horiz-adv-x="426" 
d="M330 312q-9 24 -24 40t-33 25.5t-38 13.5t-39 4q-22 0 -41 -5.5t-32.5 -13t-21.5 -15.5t-8 -14q0 -9 10 -17t33 -15q23 -6 45 -9t35 -5q29 -5 60 -14t56 -25.5t41 -43t16 -65.5q0 -37 -14.5 -66.5t-38.5 -50t-56.5 -31.5t-68.5 -11t-68 11t-56.5 31.5t-38.5 50t-14 66.5
v89h66v-89q0 -43 31.5 -68.5t79.5 -25.5q49 0 80 25.5t31 68.5q0 30 -18 46.5t-44 25.5t-55 13t-50 8q-19 4 -41.5 10.5t-42 18t-32.5 28.5t-13 41q0 28 16.5 50t42 36.5t56 22t59.5 7.5t57.5 -6.5t54 -21t46 -38.5t34.5 -60z" />
    <glyph glyph-name="nonuthai" unicode="&#xe19;" horiz-adv-x="450" 
d="M343 0v57q-29 -30 -64.5 -47t-70.5 -17q-32 0 -62 10.5t-53.5 31t-38 51t-14.5 71.5v293h67v-293q0 -24 8.5 -43t22.5 -31.5t33 -19t39 -6.5q24 0 48 10t43 28t30.5 42t11.5 52v261h67v-450h-67z" />
    <glyph glyph-name="bobaimaithai" unicode="&#xe1a;" horiz-adv-x="450" 
d="M410 174q0 -38 -14.5 -70.5t-39.5 -57t-59 -38.5t-72 -14t-72 14t-59 38.5t-39.5 57t-14.5 70.5v276h67v-276q0 -24 9 -44.5t25 -36.5t37.5 -25t46.5 -9q24 0 45.5 9t37.5 25t25.5 36.5t9.5 44.5v276h67v-276z" />
    <glyph glyph-name="poplathai" unicode="&#xe1b;" horiz-adv-x="450" 
d="M410 175q0 -38 -14.5 -70.5t-39.5 -57t-59 -38.5t-72 -14t-72 14t-59 38.5t-39.5 57t-14.5 70.5v275h67v-275q0 -24 9 -44.5t25 -36.5t37.5 -25t46.5 -9q24 0 45.5 9t37.5 25t25.5 36.5t9.5 44.5v457h67v-457z" />
    <glyph glyph-name="phophungthai" unicode="&#xe1c;" horiz-adv-x="508" 
d="M468 115q0 -25 -10 -46.5t-26.5 -37.5t-39.5 -25.5t-48 -9.5q-54 0 -90 38q-36 -38 -90 -38q-26 0 -48.5 9.5t-39 25.5t-26.5 37.5t-10 46.5v161q0 37 15 69.5t42 57t64.5 38.5t82.5 14v-65q-32 0 -57.5 -9t-43 -24.5t-27 -36t-9.5 -44.5v-161q0 -23 16.5 -39t40.5 -16
q23 0 40 16t17 39v178h66v-178q0 -23 17 -39t40 -16q24 0 40.5 16t16.5 39v335h67v-335z" />
    <glyph glyph-name="fofathai" unicode="&#xe1d;" horiz-adv-x="508" 
d="M468 115q0 -25 -10 -46.5t-26.5 -37.5t-39.5 -25.5t-48 -9.5q-54 0 -90 38q-36 -38 -90 -38q-26 0 -48.5 9.5t-39 25.5t-26.5 37.5t-10 46.5v161q0 37 15 70t42 57t64.5 38t82.5 14v-65q-32 0 -57.5 -9t-43 -24.5t-27 -36t-9.5 -44.5v-161q0 -23 16.5 -39t40.5 -16
q23 0 40 16t17 39v178h66v-178q0 -23 17 -39t40 -16q24 0 40.5 16t16.5 39v517h67v-517z" />
    <glyph glyph-name="phophanthai" unicode="&#xe1e;" horiz-adv-x="526" 
d="M486 120q0 -26 -10 -48.5t-27.5 -39.5t-40.5 -27t-50 -10q-29 0 -53.5 11t-41.5 30q-17 -19 -41.5 -30t-53.5 -11q-27 0 -50 10t-40.5 27t-27.5 39.5t-10 48.5v330h66v-330q0 -25 18 -42.5t44 -17.5t44 17.5t18 42.5v330h66v-330q0 -25 18 -42.5t44 -17.5t44 17.5
t18 42.5v330h66v-330z" />
    <glyph glyph-name="fofanthai" unicode="&#xe1f;" horiz-adv-x="527" 
d="M487 120q0 -26 -10 -48.5t-27.5 -39.5t-41 -27t-50.5 -10q-28 0 -52.5 11t-42.5 30q-17 -19 -41.5 -30t-53.5 -11q-26 0 -49.5 10t-41 27t-27.5 39.5t-10 48.5v330h67v-330q0 -25 17.5 -42.5t43.5 -17.5t44 17.5t18 42.5v330h67v-330q0 -25 17.5 -42.5t43.5 -17.5
t44 17.5t18 42.5v512h67v-512z" />
    <glyph glyph-name="phosamphaothai" unicode="&#xe20;" horiz-adv-x="469" 
d="M362 0v259q0 60 -40.5 96.5t-103.5 36.5q-33 0 -63.5 -16t-51.5 -40l31 -33v-303h-110v65h43v216l-46 50q32 57 83 91t114 34q46 0 85 -14.5t67 -41t43.5 -62.5t15.5 -79v-259h-67z" />
    <glyph glyph-name="momathai" unicode="&#xe21;" horiz-adv-x="450" 
d="M410 157q0 -41 -14.5 -71.5t-38 -51t-54 -31t-62.5 -10.5q-35 0 -70 17t-64 47v-57h-67v450h67v-261q0 -27 12 -51t30.5 -42t42.5 -28.5t48 -10.5q20 0 38.5 6.5t33 19t23 31.5t8.5 43v293h67v-293z" />
    <glyph glyph-name="yoyakthai" unicode="&#xe22;" horiz-adv-x="445" 
d="M405 175q0 -38 -14.5 -70.5t-40 -57.5t-59.5 -39t-73 -14q-37 0 -69.5 13t-57.5 36t-41 55.5t-19 70.5l67 67q-26 24 -44 47t-18 61q0 23 9 43.5t24.5 35.5t36.5 24t45 9q23 0 45.5 -10t48.5 -34l-48 -46q-17 15 -27 20t-20 5q-20 0 -34 -13.5t-14 -33.5q0 -19 17 -36
l73 -73l-90 -90q10 -38 42 -62.5t74 -24.5q25 0 47 9.5t38 25t25.5 37t9.5 45.5v275h67v-275z" />
    <glyph glyph-name="roruathai" unicode="&#xe23;" horiz-adv-x="408" 
d="M313 311q-16 48 -46.5 66.5t-70.5 18.5q-42 0 -68 -17.5t-26 -46.5q0 -18 20 -26t50.5 -14t65.5 -13t65.5 -21t50.5 -39.5t20 -67.5q0 -39 -15 -68.5t-39.5 -49.5t-55.5 -30.5t-62 -10.5q-30 0 -60 9.5t-55 29t-41.5 50t-19.5 71.5l64 22q3 -32 12.5 -54.5t24.5 -36.5
t34 -20t40 -6q45 0 75.5 24.5t30.5 69.5q0 28 -21 41.5t-53 21.5q-25 6 -59 11.5t-64.5 17t-52 32t-21.5 55.5q0 32 14 56.5t36.5 41t51 24.5t57.5 8q27 0 54.5 -6.5t52 -21.5t43.5 -39t30 -59z" />
    <glyph glyph-name="ruthai" unicode="&#xe24;" horiz-adv-x="460" 
d="M420 -171h-67v430q0 29 -10.5 53.5t-30 42t-46 27t-57.5 9.5q-33 0 -63.5 -16t-51.5 -40l30 -33v-237h66v-65h-132v280l-46 51q32 57 83 91t114 34q46 0 85 -14.5t67 -41t43.5 -62.5t15.5 -79v-430z" />
    <glyph glyph-name="lolingthai" unicode="&#xe25;" horiz-adv-x="441" 
d="M335 0v124q0 26 -10 45.5t-26.5 33t-38 20t-44.5 6.5t-43.5 -6.5t-36.5 -20t-25.5 -33t-9.5 -45.5q0 -24 12 -46t40 -44l-46 -47q-73 58 -73 137q0 40 15.5 71.5t41 53.5t58 34t67.5 12q31 0 61.5 -9.5t57.5 -29.5v31q0 25 -10.5 44.5t-27.5 32.5t-39 19.5t-44 6.5
q-42 0 -75.5 -23t-41.5 -77h-67q4 43 21.5 74.5t43 51.5t56.5 29.5t63 9.5q33 0 66.5 -10.5t60 -31.5t43.5 -52.5t17 -73.5v-287h-66z" />
    <glyph glyph-name="luthai" unicode="&#xe26;" horiz-adv-x="469" 
d="M362 -171v430q0 30 -10.5 54t-30 41.5t-46 27t-57.5 9.5q-33 0 -63.5 -15.5t-51.5 -39.5l31 -33v-303h-110v65h43v215l-46 51q32 57 83 91t114 34q46 0 85 -15t67 -41t43.5 -62t15.5 -79v-430h-67z" />
    <glyph glyph-name="wowaenthai" unicode="&#xe27;" horiz-adv-x="414" 
d="M374 225q0 -52 -16.5 -95t-44.5 -73.5t-65 -47.5t-77 -16.5t-80.5 19t-76.5 58.5l42 46q39 -44 83 -54t81 7t61.5 57.5t24.5 98.5t-24 98.5t-61 57t-81 6.5t-84 -53l-42 46q36 40 77 58.5t81 19t76.5 -16.5t64.5 -47.5t44.5 -73.5t16.5 -95z" />
    <glyph glyph-name="sosalathai" unicode="&#xe28;" horiz-adv-x="450" 
d="M371 389q18 -23 28.5 -51t10.5 -60v-278h-67v278q0 24 -9 44.5t-25 36t-37.5 24.5t-46.5 9q-24 0 -45.5 -9t-37.5 -24.5t-25.5 -36t-9.5 -44.5v-18h119v-63h-119v-197h-67v278q0 37 14.5 69.5t39.5 57t59 38.5t72 14q26 0 49.5 -6.5t44.5 -17.5l54 59l52 -43z" />
    <glyph glyph-name="sorusithai" unicode="&#xe29;" horiz-adv-x="451" 
d="M410 231v-57q0 -38 -14.5 -70.5t-39.5 -57t-59 -38.5t-72 -14t-72 14t-59 38.5t-39.5 57t-14.5 70.5v276h67v-276q0 -24 9 -45t25 -36.5t37.5 -24.5t46.5 -9q24 0 45.5 9t37.5 24.5t25.5 36.5t9.5 45v57h-56q-30 0 -50 20t-20 48v41h64v-39q0 -6 6 -6h56v155h67v-155h42
v-64h-42z" />
    <glyph glyph-name="sosuathai" unicode="&#xe2a;" horiz-adv-x="441" 
d="M368 387q33 -41 33 -100v-287h-66v125q0 26 -10 45.5t-26.5 32.5t-38 19.5t-44.5 6.5t-43.5 -6.5t-36.5 -20t-25.5 -33t-9.5 -44.5q0 -24 12 -46t40 -44l-46 -48q-73 58 -73 138q0 39 15.5 70.5t41 53.5t58 34t67.5 12q31 0 61.5 -9t57.5 -29v30q0 25 -10.5 44.5
t-27.5 32.5t-39 20t-44 7q-42 0 -75.5 -23.5t-41.5 -77.5h-67q4 44 21.5 75.5t43 51.5t56.5 29.5t63 9.5q54 0 101 -25l56 61l52 -45z" />
    <glyph glyph-name="hohipthai" unicode="&#xe2b;" horiz-adv-x="461" 
d="M421 0h-67v224q0 30 -21.5 51t-53.5 21q-26 0 -42 -12l-130 -92v-192h-67v450h67v-181l269 190l39 -49l-86 -61q42 -16 67 -49.5t25 -78.5v-221z" />
    <glyph glyph-name="lochulathai" unicode="&#xe2c;" horiz-adv-x="527" 
d="M487 478q0 -22 -5 -39t-19 -28q14 -16 19 -34.5t5 -41.5v-215q0 -26 -10 -48.5t-27.5 -39.5t-41 -26.5t-50.5 -9.5q-28 0 -52.5 11t-42.5 30q-17 -19 -41.5 -30t-53.5 -11q-26 0 -49.5 9.5t-41 26.5t-27.5 39.5t-10 48.5v330h67v-330q0 -24 17.5 -41.5t43.5 -17.5
t44 17.5t18 42.5v198h67v-199q0 -25 17.5 -42t43.5 -17t44 17.5t18 41.5v214q0 31 -13.5 43.5t-34.5 12.5h-56v60h59q29 0 37.5 5t8.5 24l1 19h65v-20z" />
    <glyph glyph-name="oangthai" unicode="&#xe2d;" horiz-adv-x="500" 
d="M471 226q0 -47 -15.5 -89.5t-44.5 -74.5t-69.5 -51t-89.5 -19t-90 18.5t-70 50t-45.5 74.5t-16.5 91q0 3 0.5 7.5t0.5 15.5h223v-64h-152q11 -55 50.5 -92t99.5 -37q33 0 61 13t48 36t31.5 54t11.5 67t-11 67.5t-31 54.5t-48 36t-62 13q-49 0 -88.5 -28t-60.5 -85l-62 26
q29 72 83.5 111.5t127.5 39.5q51 0 91.5 -19t69 -51.5t43.5 -75t15 -89.5z" />
    <glyph glyph-name="honokhukthai" unicode="&#xe2e;" horiz-adv-x="500" 
d="M415 388q27 -32 41.5 -73.5t14.5 -89.5q0 -47 -15.5 -89.5t-44.5 -74.5t-69.5 -51t-89.5 -19t-90 18.5t-70 50t-45.5 74.5t-16.5 91q0 4 0.5 8.5t0.5 15.5h223v-65h-152q11 -55 50.5 -91.5t99.5 -36.5q33 0 61 13t48 35.5t31.5 54t11.5 67.5t-11 67.5t-31 54t-48 35.5
t-62 13q-49 0 -88.5 -28.5t-60.5 -83.5l-62 25q29 72 83.5 112t127.5 40q63 0 110 -29l62 69l52 -44z" />
    <glyph glyph-name="paiyannoithai" unicode="&#xe2f;" horiz-adv-x="410" 
d="M303 0v302q-44 -33 -101 -33q-35 0 -65.5 13t-53.5 37t-36 57t-13 74h66q0 -55 30 -86t72 -31t71.5 31t29.5 86h67v-450h-67z" />
    <glyph glyph-name="saraathai" unicode="&#xe30;" horiz-adv-x="214" 
d="M102 287q-30 0 -51 21.5t-21 50.5v36h63v-36q0 -4 3 -6.5t5 -2.5h82v-62zM102 43q-30 0 -51 21.5t-21 50.5v36h63v-36q0 -4 3 -6.5t5 -2.5h82v-63h-81z" />
    <glyph glyph-name="maihanakatthai" unicode="&#xe31;" 
d="M-222 519q-29 0 -50 21.5t-21 50.5v41h63v-41q0 -8 8 -8h222v-63z" />
    <glyph glyph-name="saraaathai" unicode="&#xe32;" horiz-adv-x="340" 
d="M300 0h-66v285q0 52 -25.5 80t-76.5 28q-26 0 -46 -8t-42 -31l-46 46q32 30 63.5 43t71.5 13q43 0 74.5 -13t52 -35.5t30.5 -52t10 -62.5v-293z" />
    <glyph glyph-name="saraamthai" unicode="&#xe33;" horiz-adv-x="340" 
d="M-2 575q0 -29 -21 -50t-51 -21t-51 21t-21 50q0 30 21 51t51 21t51 -21t21 -51zM300 0h-67v285q0 52 -25.5 80t-76.5 28q-25 0 -45 -8t-42 -31l-46 46q31 30 63 43t72 13q43 0 74.5 -13t52 -35.5t30.5 -52t10 -62.5v-293zM-51 575q0 10 -6.5 16.5t-16.5 6.5t-17 -6.5
t-7 -16.5t7 -17t17 -7t16.5 7t6.5 17z" />
    <glyph glyph-name="saraithai" unicode="&#xe34;" 
d="M-406 520v63h366v-63h-366z" />
    <glyph glyph-name="saraiithai" unicode="&#xe35;" 
d="M-406 520v63h303v60h63v-123h-366z" />
    <glyph glyph-name="sarauethai" unicode="&#xe36;" 
d="M-34 582q0 -26 -18 -44t-43 -18h-311v63h249q1 26 18.5 43t42.5 17q26 0 44 -17.5t18 -43.5zM-75 581q0 8 -6.5 14.5t-14.5 6.5t-14.5 -6.5t-6.5 -14.5t6.5 -14.5t14.5 -6.5t14.5 6.5t6.5 14.5z" />
    <glyph glyph-name="saraueethai" unicode="&#xe37;" 
d="M-406 520v63h198v60h62v-60h43v60h63v-123h-366z" />
    <glyph glyph-name="sarauthai" unicode="&#xe38;" 
d="M-103 -188v80h-40v64h68q15 0 25 -10.5t10 -24.5v-109h-63z" />
    <glyph glyph-name="sarauuthai" unicode="&#xe39;" 
d="M-40 -114q0 -18 -7 -34t-18.5 -27.5t-27 -18.5t-33.5 -7q-36 0 -61.5 25.5t-25.5 61.5v6h-40v64h103v-70q0 -10 6.5 -17t16.5 -7q11 0 17.5 7t6.5 17v70h63v-70z" />
    <glyph glyph-name="phinthuthai" unicode="&#xe3a;" 
d="M-29 -81q0 -18 -13 -31t-31 -13t-31 13t-13 31t13 31t31 13t31 -13t13 -31z" />
    <glyph glyph-name="PUCR2005" unicode="&#xe3e;" 
 />
    <glyph glyph-name="bahtthai" unicode="&#xe3f;" horiz-adv-x="390" 
d="M372 155q0 -36 -12 -64t-34 -48t-51.5 -31t-63.5 -12v-81h-60v81h-113v528h113v76h60v-78q58 -8 87.5 -47.5t29.5 -96.5q0 -30 -9 -53.5t-31 -43.5q40 -19 62 -52t22 -78zM266 386q0 61 -55 77v-157q29 8 42 29.5t13 50.5zM151 468h-52v-166h52v166zM310 154q0 24 -8 40
t-21.5 26t-31.5 14.5t-38 6.5v-182q42 3 70.5 26.5t28.5 68.5zM151 242h-52v-183h52v183z" />
    <glyph glyph-name="saraethai" unicode="&#xe40;" horiz-adv-x="177" 
d="M55 0v450h67v-450h-67z" />
    <glyph glyph-name="saraaethai" unicode="&#xe41;" horiz-adv-x="324" 
d="M202 0v450h67v-450h-67zM55 0v450h67v-450h-67z" />
    <glyph glyph-name="saraothai" unicode="&#xe42;" horiz-adv-x="184" 
d="M64 587q-5 0 -10 -1.5t-5 -6.5q0 -6 11 -12q28 -17 46 -37.5t18 -57.5v-472h-67v473q0 17 -12.5 27t-24.5 18q-14 9 -26 24.5t-12 38.5q0 22 8.5 35.5t22 21t28.5 10t29 2.5h131v-63h-137z" />
    <glyph glyph-name="saraaimaimuanthai" unicode="&#xe43;" horiz-adv-x="184" 
d="M191 542q0 -24 -9.5 -45t-24.5 -36l-32 -32v-429h-67v456q6 6 17 15.5t22 21.5t19 24.5t8 24.5q0 19 -13.5 33t-33.5 14t-34 -16t-14 -50h-67q0 30 9 54.5t24.5 42t36 26.5t44.5 9t45 -9t36.5 -24t24.5 -35.5t9 -44.5z" />
    <glyph glyph-name="saraaimaimalaithai" unicode="&#xe44;" horiz-adv-x="184" 
d="M203 581q0 -23 -12 -38.5t-26 -24.5q-12 -8 -24.5 -18t-12.5 -27v-473h-67v472q0 37 17.5 57.5t46.5 37.5q11 6 11 12q0 5 -5 6.5t-10 1.5h-138v63h131q14 0 30 -2.5t29 -10t21.5 -21t8.5 -35.5z" />
    <glyph glyph-name="lakkhangyaothai" unicode="&#xe45;" horiz-adv-x="345" 
d="M300 -171h-66v456q0 52 -25.5 80t-76.5 28q-26 0 -46 -8t-42 -31l-46 46q32 30 63.5 43t71.5 13q43 0 74.5 -13t52 -35.5t30.5 -52t10 -62.5v-464z" />
    <glyph glyph-name="maiyamokthai" unicode="&#xe46;" horiz-adv-x="473" 
d="M349 -171v449q0 31 -14.5 57t-39.5 43l-69 -69l-69 69q-25 -17 -39.5 -43.5t-14.5 -57.5q0 -25 11 -48t37 -50l-46 -46q-35 35 -51.5 70.5t-16.5 73.5q0 60 35 108t98 71l56 -56l57 56q63 -23 97.5 -70.5t34.5 -107.5v-449h-66z" />
    <glyph glyph-name="maitaikhuthai" unicode="&#xe47;" 
d="M-289 652q-16 0 -24.5 -11.5t-8.5 -27.5q0 -15 8.5 -26.5t23.5 -11.5q14 0 23.5 10.5t9.5 36.5h59q0 -26 10 -36.5t23 -10.5q14 0 23.5 10.5t9.5 36.5h61q0 -51 -27.5 -79t-65.5 -28q-19 0 -35 7t-28 18q-12 -11 -28 -18t-34 -7q-42 0 -67.5 27.5t-25.5 70.5t25.5 71
t67.5 28h249v-60h-249z" />
    <glyph glyph-name="maiekthai" unicode="&#xe48;" 
d="M-102 678v123h62v-123h-62z" />
    <glyph glyph-name="maithothai" unicode="&#xe49;" 
d="M-223 677q4 6 12 17.5t15.5 23t13 20.5t5.5 11q0 18 -14 18q-8 0 -14 -6l-40 40q22 21 53 21q32 0 53.5 -20.5t21.5 -50.5q0 -10 -4 -14q2 0 5 0.5t5 0.5h5h106v-61h-223z" />
    <glyph glyph-name="maitrithai" unicode="&#xe4a;" 
d="M-129 678l27 50q2 2 2 4.5v3.5q0 5 -4 9.5t-9 4.5q-4 0 -10 -3.5t-6 -19.5h-52q0 14 -4 18.5t-11 4.5q-6 0 -9.5 -5t-3.5 -10q0 -2 1.5 -9t16.5 -15l-40 -39q-20 17 -28 32t-8 31q0 29 21 50t50 21q11 0 23 -4.5t18 -11.5q6 7 17.5 11.5t23.5 4.5q29 0 49.5 -20t21.5 -49
h66v-59h-152z" />
    <glyph glyph-name="maichattawathai" unicode="&#xe4b;" 
d="M-40 722v-44h-63v43h-42v54h42v44h63v-43h42v-54h-42z" />
    <glyph glyph-name="thanthakhatthai" unicode="&#xe4c;" 
d="M-85 701q-2 0 -5.5 -2.5t-3.5 -7.5q0 -3 2.5 -7.5t13.5 -13.5l-42 -41q-20 19 -27 33.5t-7 28.5q0 29 20 49.5t49 20.5h70v-60h-70z" />
    <glyph glyph-name="nikhahitthai" unicode="&#xe4d;" 
d="M-2 575q0 -29 -21 -50t-51 -21t-51 21t-21 50q0 30 21 51t51 21t51 -21t21 -51zM-51 575q0 10 -6.5 16.5t-16.5 6.5t-17 -6.5t-7 -16.5t7 -17t17 -7t16.5 7t6.5 17z" />
    <glyph glyph-name="yamakkanthai" unicode="&#xe4e;" 
d="M-61 680q-9 9 -15.5 12.5t-13.5 3.5q-14 0 -24 -9.5t-10 -23.5t11 -23.5t34 -9.5v-47q-23 0 -34 -9.5t-11 -23.5t11 -23.5t34 -9.5v-47q-42 0 -67.5 23.5t-25.5 56.5t24 56q-24 24 -24 57t23.5 56.5t58.5 23.5q32 0 64 -30z" />
    <glyph glyph-name="fongmanthai" unicode="&#xe4f;" horiz-adv-x="530" 
d="M485 212q0 -45 -17.5 -85t-47.5 -70t-70 -47.5t-85 -17.5t-85 17.5t-70 47.5t-47.5 70t-17.5 85t17.5 85t47.5 70t70 47.5t85 17.5t85 -17.5t70 -47.5t47.5 -70t17.5 -85zM383 212q0 -24 -9.5 -45.5t-25.5 -37.5t-37.5 -25.5t-45.5 -9.5t-45.5 9.5t-37.5 25.5t-25.5 37.5
t-9.5 45.5t9.5 45.5t25.5 37.5t37.5 25.5t45.5 9.5t45.5 -9.5t37.5 -25.5t25.5 -37.5t9.5 -45.5zM328 212q0 26 -18.5 44.5t-44.5 18.5t-44.5 -18.5t-18.5 -44.5t18.5 -44.5t44.5 -18.5t44.5 18.5t18.5 44.5zM428 211q0 34 -13 63.5t-35 52t-51.5 35.5t-63.5 13t-63.5 -13
t-51.5 -35t-35 -51.5t-13 -63.5t13 -63.5t35 -51.5t51.5 -35t63.5 -13t63.5 13t51.5 35t34.5 51.5t12.5 63.5z" />
    <glyph glyph-name="zerothai" unicode="&#xe50;" horiz-adv-x="442" 
d="M423 188q0 -41 -16 -77t-43 -62.5t-63.5 -42t-78.5 -15.5t-78.5 15.5t-63.5 42t-43 62.5t-16 77t16 77t43 62.5t63.5 42t78.5 15.5t78.5 -15.5t63.5 -42t43 -62.5t16 -77zM356 188q0 27 -10.5 51t-28.5 42t-42.5 28.5t-52.5 10.5t-52.5 -10.5t-42.5 -28.5t-28.5 -42
t-10.5 -51t10.5 -51t28.5 -42t42.5 -28.5t52.5 -10.5t52.5 10.5t42.5 28.5t28.5 42t10.5 51z" />
    <glyph glyph-name="onethai" unicode="&#xe51;" horiz-adv-x="442" 
d="M418 188q0 -41 -16 -77t-43 -62.5t-63.5 -42t-78.5 -15.5q-82 0 -156 71l47 46q29 -28 55 -40t54 -12t52.5 10.5t42.5 28.5t28.5 42t10.5 51t-10.5 51t-28.5 42t-42.5 28.5t-52.5 10.5q-42 0 -74.5 -21t-46.5 -51q-7 -14 -2.5 -20.5t12.5 -6.5h66v-65h-68
q-30 0 -47.5 12.5t-24.5 31.5t-5 40.5t11 38.5q23 46 71 76t108 30q42 0 78.5 -15.5t63.5 -42t43 -62.5t16 -77z" />
    <glyph glyph-name="twothai" unicode="&#xe52;" horiz-adv-x="510" 
d="M474 207q0 -49 -16 -88t-44.5 -66.5t-68.5 -42.5t-88 -15q-50 0 -90 16t-68.5 44.5t-43.5 67t-15 82.5v259h67v-259q0 -31 10 -57.5t29 -46t47 -30.5t64 -11q69 0 109.5 39t40.5 108q0 11 -0.5 30.5t-4.5 38t-12.5 32.5t-24.5 14q-14 0 -23.5 -9t-9.5 -23v-36h-66v36
q0 14 -10 23t-27 9t-27 -11t-10 -28q0 -9 7 -19t33 -24l-50 -49q-32 23 -44 46t-13 46q0 19 7 38t20.5 34t32.5 24t44 9q20 0 38 -7.5t32 -19.5q14 12 32 19.5t38 7.5q37 0 58 -19.5t31.5 -47.5t13 -59t2.5 -55z" />
    <glyph glyph-name="threethai" unicode="&#xe53;" horiz-adv-x="509" 
d="M486 195q0 -69 -38.5 -124.5t-113.5 -84.5l-31 58q60 22 88.5 61t28.5 90q0 37 -18 68t-48 49l-94 -94l-98 98q-37 -21 -55 -57t-18 -75q0 -26 7.5 -49t21 -40.5t33 -28.5t43.5 -12q4 0 12 3t25 14l27 -60q-22 -11 -36.5 -15.5t-26.5 -4.5q-42 1 -74 18.5t-53.5 45
t-32.5 61.5t-11 69q0 31 8.5 62t26.5 58.5t47 49.5t70 36l84 -83l82 81q67 -26 105.5 -77t38.5 -117z" />
    <glyph glyph-name="fourthai" unicode="&#xe54;" horiz-adv-x="460" 
d="M433 346q-8 -11 -21 -18t-30 -7h-157q-28 0 -52.5 -10.5t-43 -28.5t-29 -42t-10.5 -51t10.5 -51t29 -41.5t43 -28t52.5 -10.5q41 0 76 21l-55 54q-24 24 -32 50t19 52l31 31l48 -46l-31 -29l164 -161l-47 -46l-48 47q-27 -18 -59 -28t-66 -10q-42 0 -78.5 15.5t-63.5 42
t-43 62t-16 76.5t16 77t43 62.5t63.5 42t78.5 15.5h154q2 0 4 2l56 74l55 -37z" />
    <glyph glyph-name="fivethai" unicode="&#xe55;" horiz-adv-x="460" 
d="M433 347q-18 -24 -51 -24h-158q-28 0 -52.5 -10.5t-42.5 -28.5t-28.5 -42t-10.5 -51t10.5 -51t29 -42t43 -28.5t52.5 -10.5q20 0 39.5 5.5t36.5 15.5l-55 54q-24 24 -32 50t19 52l31 31l48 -46l-31 -29l164 -162l-47 -46l-48 49q-56 -39 -125 -39q-42 0 -78.5 15.5
t-63.5 42t-43 62.5t-16 77q0 34 11 64.5t30.5 55.5t47 43t59.5 27q-3 9 -3 19q0 18 7 32.5t18.5 25.5t27 17t32.5 6q33 0 58.5 -22.5t25.5 -58.5q0 -9 -1 -12h41q3 0 5 2l56 74l55 -37zM287 400q0 14 -9.5 23.5t-23.5 9.5t-24 -9.5t-10 -23.5t10 -23t24 -9t23.5 9t9.5 23z
" />
    <glyph glyph-name="sixthai" unicode="&#xe56;" horiz-adv-x="435" 
d="M413 193q0 -41 -15.5 -77t-43 -63t-64 -43t-78.5 -16q-54 0 -94.5 24t-65.5 58q-19 25 -20.5 45.5t8 38.5t26 34t33.5 33l47 -46q-5 -5 -15 -12t-18 -15.5t-12 -18.5t3 -20q17 -24 46 -39.5t62 -15.5q28 0 52.5 10.5t43 28.5t29 42.5t10.5 51.5q0 38 -20.5 70t-52.5 49
l-86 -87l-160 159l47 46l113 -113l70 70q35 -10 63.5 -29t49 -44.5t31.5 -56.5t11 -64z" />
    <glyph glyph-name="seventhai" unicode="&#xe57;" horiz-adv-x="515" 
d="M486 197q0 -69 -38.5 -124.5t-113.5 -84.5l-31 58q60 22 88.5 61t28.5 90q0 35 -17 66.5t-49 51.5l-94 -95l-98 98q-37 -20 -55 -56t-18 -75q0 -26 7.5 -49t21 -40.5t33 -28.5t43.5 -12q3 0 11.5 3t25.5 14l27 -61q-22 -11 -36.5 -15.5t-27.5 -3.5q-42 1 -74 18.5
t-53.5 44.5t-32.5 61t-11 69q0 31 8.5 62t27 58.5t47.5 50t70 36.5l84 -84l82 82q24 -10 44.5 -21.5t33.5 -31.5v125h66v-267z" />
    <glyph glyph-name="eightthai" unicode="&#xe58;" horiz-adv-x="518" 
d="M472 347q-8 -11 -21.5 -18t-30.5 -7h-189q-29 0 -55 -10.5t-45 -29.5t-30 -44t-11 -54q0 -39 20 -71t52 -50l98 96l102 -100q27 5 45.5 26.5t18.5 49.5q0 32 -25.5 55t-73.5 23v65q37 0 67.5 -11t52.5 -30.5t33.5 -45.5t11.5 -56q0 -29 -11.5 -55t-32 -45.5t-48.5 -30.5
t-61 -11l-79 77l-84 -82q-70 23 -111.5 75t-41.5 121q0 42 16.5 79t44.5 64.5t66 43.5t81 16h187q1 0 3 3l57 74l55 -37z" />
    <glyph glyph-name="ninethai" unicode="&#xe59;" horiz-adv-x="526" 
d="M540 430q-9 -14 -20 -32.5t-23.5 -35t-28 -28.5t-33.5 -13q-20 -1 -31.5 0t-20.5 -1t-18 -9t-24 -25l171 -265l-54 -33l-207 320q-11 14 -35 14q-23 0 -45 -10.5t-39.5 -28.5t-28.5 -42t-11 -51t10.5 -51t28.5 -42t42.5 -28t52.5 -10q14 0 29 3t40 14l30 -58
q-32 -14 -54.5 -19.5t-44.5 -5.5q-42 0 -78.5 15.5t-63.5 42t-43 62.5t-16 77q0 40 16 76t42 63t60.5 42.5t72.5 15.5q27 0 51.5 -11.5t38.5 -34.5q16 17 29 26t26.5 12.5t29 4t37.5 0.5q7 0 14.5 7t15 18t15 24.5t15.5 26.5z" />
    <glyph glyph-name="angkhankhuthai" unicode="&#xe5a;" horiz-adv-x="557" 
d="M303 0v302q-44 -33 -101 -33q-35 0 -65.5 13t-53.5 37t-36 57t-13 74h66q0 -55 30 -86t72 -31t71.5 31t29.5 86h67v-450h-67zM517 450v-450h-67v450h67z" />
    <glyph glyph-name="khomutthai" unicode="&#xe5b;" horiz-adv-x="1006" 
d="M772 199q-7 -12 -13.5 -22.5t-11.5 -19.5q-10 -16 -19 -30.5t-12 -17.5q-3 8 -13 25.5t-21.5 37t-22 37t-14.5 23.5q-3 -8 -13.5 -27t-24 -41.5t-27 -44.5t-23.5 -36q-5 11 -17 32t-25.5 43.5l-25.5 42.5t-18 28q-5 -36 -23 -70.5t-46.5 -61t-65 -42.5t-78.5 -16
q-103 0 -157.5 52t-54.5 139q0 43 14 76t36.5 55.5t50.5 33.5t57 11q27 0 51.5 -8.5t42.5 -26.5t26.5 -44.5t3.5 -62.5l-58 -5q3 21 -1.5 37t-14 27t-23.5 16.5t-29 5.5q-16 0 -32.5 -7t-29.5 -21t-21.5 -35.5t-8.5 -51.5q0 -35 11.5 -60t32 -40.5t47 -23t56.5 -7.5
q40 0 74 22t55 55t26.5 72.5t-10.5 74.5l44 30q12 -11 29.5 -32t35.5 -45t32.5 -46t20.5 -34q3 4 9 17.5t13 29.5t13 30.5t8 20.5l43 25q4 -4 14.5 -18.5t22.5 -31t21.5 -31t12.5 -20.5q1 1 4 8t7 15l10 20h213v-62h-183z" />
    <glyph glyph-name="ZWSP" unicode="&#x200b;" 
 />
    <glyph glyph-name="endash" unicode="&#x2013;" horiz-adv-x="380" 
d="M15 145v60h350v-60h-350z" />
    <glyph glyph-name="emdash" unicode="&#x2014;" horiz-adv-x="760" 
d="M15 145v60h730v-60h-730z" />
    <glyph glyph-name="quoteleft" unicode="&#x2018;" horiz-adv-x="188" 
d="M141 568q-20 -13 -32.5 -25.5t-24.5 -32.5q26 -2 39 -14.5t13 -29.5q0 -18 -13.5 -32t-33.5 -14q-27 0 -40 19t-13 40q0 26 20 56.5t62 58.5z" />
    <glyph glyph-name="quoteright" unicode="&#x2019;" horiz-adv-x="188" 
d="M138 532q0 -26 -20 -56.5t-62 -58.5l-24 26q20 12 32.5 25t25.5 33q-26 2 -39.5 14.5t-13.5 29.5q0 18 13.5 32t33.5 14q27 0 40.5 -19t13.5 -40z" />
    <glyph glyph-name="quotedblleft" unicode="&#x201c;" horiz-adv-x="308" 
d="M276 568q-20 -13 -32.5 -25.5t-24.5 -32.5q26 -2 39 -14.5t13 -29.5q0 -18 -13.5 -32t-33.5 -14q-27 0 -40 19t-13 40q0 26 20 56.5t62 58.5zM141 568q-20 -13 -32.5 -25.5t-24.5 -32.5q26 -2 39 -14.5t13 -29.5q0 -18 -13.5 -32t-33.5 -14q-27 0 -40 19t-13 40
q0 26 20 56.5t62 58.5z" />
    <glyph glyph-name="quotedblright" unicode="&#x201d;" horiz-adv-x="315" 
d="M271 532q0 -26 -20 -56.5t-62 -58.5l-23 26q19 12 31.5 25t26.5 33q-26 2 -39.5 14.5t-13.5 29.5q0 18 13.5 32t33.5 14q27 0 40 -19t13 -40zM136 532q0 -26 -20 -56.5t-62 -58.5l-23 26q19 12 31.5 25t26.5 33q-26 2 -39.5 14.5t-13.5 29.5q0 18 13.5 32t33.5 14
q27 0 40 -19t13 -40z" />
    <glyph glyph-name="bullet" unicode="&#x2022;" horiz-adv-x="381" 
d="M368 200q0 -37 -14 -69.5t-38 -56.5t-56.5 -38t-69.5 -14t-69.5 14t-56.5 38t-38 56.5t-14 69.5t14 69.5t38 56.5t56.5 38t69.5 14t69.5 -14t56.5 -38t38 -56.5t14 -69.5z" />
    <glyph glyph-name="Euro" unicode="&#x20ac;" horiz-adv-x="556" 
d="M516 51q-45 -33 -84.5 -45.5t-85.5 -12.5q-43 0 -82.5 13t-73 37t-59.5 56.5t-41 71.5h-69v63h54q-1 7 -1.5 14t-0.5 15v12t1 11h-53v63h66q14 40 39.5 74.5t59.5 59t75 38.5t86 14q42 0 83 -12.5t86 -46.5l-37 -55q-40 30 -72.5 38.5t-61.5 8.5q-60 0 -108 -33.5
t-73 -85.5h182v-63h-201q-1 -6 -1.5 -12.5t-0.5 -13.5t0.5 -13t1.5 -13h201v-63h-179q26 -48 73.5 -80t104.5 -32q29 0 61.5 9t72.5 39z" />
    <glyph glyph-name="trademark" unicode="&#x2122;" horiz-adv-x="574" 
d="M513 214l-41 213l-83 -212h-20l-84 213l-42 -214h-41l62 314h24l90 -230l91 230h23l62 -314h-41zM146 488v-269h-41v269h-72v41h185v-41h-72z" />
    <glyph glyph-name="uni25CC" unicode="&#x25cc;" horiz-adv-x="670" 
d="M259 179l-48 -15l17 47q13 -18 31 -32zM312 413l23 45l22 -44q-5 1 -10.5 1h-10.5q-6 0 -12 -0.5t-12 -1.5zM355 156l-20 -42l-21 42q5 -1 11 -1.5t11 -0.5t9.5 0.5t9.5 1.5zM465 307l42 -22l-42 -19q1 5 1.5 9.5t0.5 9.5t-0.5 11t-1.5 11zM208 264l-45 23l45 22
q-1 -6 -1.5 -12t-0.5 -12q0 -5 0.5 -10.5t1.5 -10.5zM231 363l-13 46l45 -16q-18 -11 -32 -30zM440 205l12 -41l-41 13q18 13 29 28zM410 393l49 16l-17 -47q-14 18 -32 31z" />
    <glyph glyph-name="thothannobasethai" unicode="&#xf700;" horiz-adv-x="411" 
d="M334 387q17 -23 27 -50t10 -56t-11 -60l-83 -221h-70l-100 285h70l66 -190l54 147q3 10 5 19.5t2 19.5q0 22 -9 42t-24 35t-35.5 23.5t-44.5 8.5q-42 0 -73 -27.5t-38 -78.5h-67q4 39 19.5 70.5t39 54t54 34.5t65.5 12q26 0 48.5 -6.5t42.5 -17.5l54 61l52 -44z" />
    <glyph glyph-name="saraileftthai" unicode="&#xf701;" 
d="M-433 520v63h290v-63h-290z" />
    <glyph glyph-name="saraiileftthai" unicode="&#xf702;" 
d="M-433 520v63h226v60h64v-123h-290z" />
    <glyph glyph-name="saraueleftthai" unicode="&#xf703;" 
d="M-134 582q0 -26 -18 -44t-43 -18h-238v63h176q1 26 18.5 43t42.5 17q26 0 44 -17.5t18 -43.5zM-175 581q0 8 -6.5 14.5t-14.5 6.5t-14.5 -6.5t-6.5 -14.5t6.5 -14.5t14.5 -6.5t14.5 6.5t6.5 14.5z" />
    <glyph glyph-name="saraueeleftthai" unicode="&#xf704;" 
d="M-433 520v63h123v60h62v-60h43v60h62v-123h-290z" />
    <glyph glyph-name="maieklowleftthai" unicode="&#xf705;" 
d="M-255 519v151h65v-150z" />
    <glyph glyph-name="maitholowleftthai" unicode="&#xf706;" 
d="M-349 519q5 7 13 18l16 22t13.5 19.5t5.5 11.5q0 17 -17 17q-8 0 -12 -6l-41 41q12 12 26 17t28 5q33 0 53.5 -20t20.5 -50q0 -5 -1.5 -8.5t-2.5 -5.5h15h106v-60z" />
    <glyph glyph-name="maitrilowleftthai" unicode="&#xf707;" 
d="M-269 519q10 17 20.5 35.5t10.5 31.5q0 10 -7 15.5t-15 5.5q-6 0 -15.5 -6t-9.5 -27h-46q0 21 -8 27t-16 6t-14 -5.5t-6 -15.5q0 -4 2 -11.5t18 -18.5l-39 -39q-17 11 -30.5 29t-13.5 38q0 16 6.5 30.5t17.5 25t25.5 17t31.5 6.5q14 0 27 -4t22 -15q11 11 23.5 15t26.5 4
q32 0 55 -21t25 -54q0 -6 -2 -12h11q5 0 7 1l35 -1v-56z" />
    <glyph glyph-name="maichattawalowleftthai" unicode="&#xf708;" 
d="M-209 575v-56h-63v55h-55v59h55v56h63v-55h55v-59h-55z" />
    <glyph glyph-name="thanthakhatlowleftthai" unicode="&#xf709;" 
d="M-226 574q-2 0 -5.5 -2t-3.5 -7q0 -4 3 -6.5t14 -13.5l-42 -42q-19 18 -26.5 32t-7.5 31q0 32 18.5 50.5t50.5 18.5h86v-61h-87z" />
    <glyph glyph-name="maieklowrightthai" unicode="&#xf70a;" 
d="M-105 519v151h65v-150z" />
    <glyph glyph-name="maitholowrightthai" unicode="&#xf70b;" 
d="M-228 519q5 7 13 18l16 22t14 20t6 11q0 17 -18 17q-8 0 -12 -6l-41 41q12 12 26 17t28 5q33 0 53.5 -20t20.5 -50q0 -10 -4 -14h15h111v-60z" />
    <glyph glyph-name="maitrilowrightthai" unicode="&#xf70c;" 
d="M-168 519q9 16 20 36.5t11 30.5t-7 15.5t-15 5.5q-6 0 -15.5 -6t-9.5 -27h-46q0 21 -8 27t-16 6t-14 -5.5t-6 -15.5q0 -4 2 -11.5t18 -18.5l-39 -39q-17 11 -30.5 29t-13.5 38q0 16 6.5 30.5t17.5 25t25.5 17t31.5 6.5q14 0 27 -4t22 -15q11 11 23.5 15t26.5 4
q32 0 55 -21t25 -54q0 -6 -2 -12h11q5 0 7 1h61v-57z" />
    <glyph glyph-name="maichattawalowrightthai" unicode="&#xf70d;" 
d="M-40 575v-56h-63v55h-55v59h55v56h63v-55h55v-59h-55z" />
    <glyph glyph-name="thanthakhatlowrightthai" unicode="&#xf70e;" 
d="M-108 574q-2 0 -5.5 -2t-3.5 -7q0 -4 3 -6.5t13 -13.5l-42 -42q-19 18 -26.5 32t-7.5 31q0 33 19 51t51 18h85v-61h-86z" />
    <glyph glyph-name="yoyingnobasethai" unicode="&#xf70f;" horiz-adv-x="745" 
d="M705 157q0 -34 -13.5 -64t-37 -52t-55 -35t-67.5 -13t-67.5 13t-55 35t-37 52t-13.5 64v102q0 30 -10.5 54.5t-30 41.5t-46.5 26.5t-60 9.5q-34 0 -65 -15.5t-52 -39.5l30 -33v-239h67v-64h-134v281l-47 50q33 57 85.5 91t115.5 34q47 0 86.5 -14.5t68 -41t44 -62.5
t15.5 -79v-102q0 -20 8.5 -38t23 -31.5t33.5 -21.5t41 -8q45 0 75 27t30 72v294l68 -1v-293z" />
    <glyph glyph-name="maihanakatleftthai" unicode="&#xf710;" 
d="M-217 519q-29 0 -50 21.5t-21 50.5v41h63v-41q0 -8 8 -8h237v-63z" />
    <glyph glyph-name="nikhahitleftthai" unicode="&#xf711;" 
d="M-155 575q0 -29 -21 -50t-51 -21q-29 0 -50.5 21t-21.5 50q0 30 21.5 51t50.5 21q30 0 51 -21t21 -51zM-203 575q0 10 -7 16.5t-17 6.5t-16.5 -6.5t-6.5 -16.5t6.5 -17t16.5 -7t17 7t7 17z" />
    <glyph glyph-name="maitaikhuleftthai" unicode="&#xf712;" 
d="M-333 644q-14 0 -20.5 -12t-6.5 -23t6.5 -22t21.5 -11q11 0 18.5 9t7.5 28h58q0 -20 6 -28.5t17 -8.5q24 0 24 37h58q0 -45 -23.5 -69.5t-57.5 -24.5q-32 0 -53 21q-9 -11 -23 -16t-29 -5q-38 0 -62.5 25.5t-24.5 63.5q0 43 24 68.5t63 25.5h204v-58h-208z" />
    <glyph glyph-name="maiekupperleftthai" unicode="&#xf713;" 
d="M-204 683v123h62v-123h-62z" />
    <glyph glyph-name="maithoupperleftthai" unicode="&#xf714;" 
d="M-263 683q4 6 12 17t15.5 22.5t13 20.5t5.5 11q0 18 -14 18q-10 0 -14 -6l-40 40q22 22 53 22q32 0 53.5 -21t21.5 -51q0 -9 -4 -13h15l106 1v-61h-223z" />
    <glyph glyph-name="maitriupperleftthai" unicode="&#xf715;" 
d="M-192 682l27 51q2 4 2 8q0 5 -4 9.5t-9 4.5t-10.5 -4t-5.5 -20h-52q0 14 -4 19t-11 5q-6 0 -9.5 -5t-3.5 -10q0 -2 1.5 -9.5t16.5 -15.5l-40 -39q-20 17 -28 32t-8 32q0 29 21 50t50 21q11 0 23 -4.5t18 -12.5q6 7 17.5 12t23.5 5q29 0 49.5 -20.5t21.5 -49.5h66v-58z
" />
    <glyph glyph-name="maichattawaupperleftthai" unicode="&#xf716;" 
d="M-143 722v-44h-63v43h-42v54h42v44h63v-43h42v-54h-42z" />
    <glyph glyph-name="thanthakhatupperleftthai" unicode="&#xf717;" 
d="M-167 701q-2 0 -5.5 -2.5t-3.5 -7.5q0 -3 2.5 -7.5t13.5 -13.5l-42 -41q-20 19 -27 33.5t-7 28.5q0 29 20 49.5t49 20.5h70v-60h-70z" />
    <glyph glyph-name="saraulowthai" unicode="&#xf718;" 
d="M-103 -343v80h-40v63h68q15 0 25 -10t10 -25v-108h-63z" />
    <glyph glyph-name="sarauulowthai" unicode="&#xf719;" 
d="M-40 -269q0 -18 -7 -34t-18.5 -27.5t-27 -18.5t-33.5 -7t-34 7t-27.5 18.5t-18.5 27t-7 33.5v7h-40v63h103v-69q0 -10 6 -17t17 -7t17.5 7t6.5 17v69h63v-70v1z" />
    <glyph glyph-name="phinthulowthai" unicode="&#xf71a;" 
d="M-29 -238q0 -19 -13 -31.5t-31 -12.5t-31 12.5t-13 30.5q0 19 13 31.5t31 12.5t31 -12.5t13 -31.5v1z" />
    <glyph glyph-name="lochula.short" unicode="&#xf71d;" horiz-adv-x="527" 
d="M487 478q0 -22 -5 -39t-19 -28q14 -16 19 -34.5t5 -41.5v-215q0 -26 -10 -48.5t-27.5 -39.5t-41 -26.5t-50.5 -9.5q-28 0 -52.5 11t-42.5 30q-17 -19 -41.5 -30t-53.5 -11q-26 0 -49.5 9.5t-41 26.5t-27.5 39.5t-10 48.5v330h67v-330q0 -24 17.5 -41.5t43.5 -17.5
t44 17.5t18 42.5v198h67v-199q0 -25 17.5 -42t43.5 -17t44 17.5t18 41.5v214q0 31 -13.5 43.5t-34.5 12.5h-56v60h59q29 0 37.5 5t8.5 24l1 19h65v-20z" />
    <glyph glyph-name="rulakkhangyao" unicode="&#xf881;" horiz-adv-x="649" 
d="M617 -170h-66v453q0 52 -25.5 81t-76.5 29q-37 0 -63 -17q18 -24 28 -54t10 -63v-430h-66l-1 430q0 29 -10.5 53.5t-30 42t-46 27t-57.5 9.5q-33 0 -63.5 -16t-51.5 -40l30 -33l1 -238h65v-65h-132v281l-46 51q32 57 84 91t113 34q72 0 125 -35q44 35 112 35
q43 0 74.5 -13.5t52 -36t30.5 -52t10 -62.5v-462z" />
    <glyph glyph-name="lulakkhangyao" unicode="&#xf882;" horiz-adv-x="649" 
d="M617 -170h-66v453q0 52 -25.5 81t-76.5 29q-37 0 -63 -17q18 -24 28 -54t10 -63v-430h-67v430q0 30 -10.5 54t-30 41.5t-46 27t-57.5 9.5q-33 0 -63.5 -15.5t-50.5 -39.5l30 -33v-304h-110v65h43v216l-46 51q32 57 84 91t113 34q72 0 125 -35q44 35 112 35
q43 0 74.5 -13.5t52 -36t30.5 -52t10 -62.5v-462z" />
    <glyph glyph-name="yamakkanleftthai" 
d="M-151 680q-9 9 -15.5 12.5t-13.5 3.5q-14 0 -24 -9.5t-10 -23.5t11 -23.5t34 -9.5v-47q-23 0 -34 -9.5t-11 -23.5t11 -23.5t34 -9.5v-47q-42 0 -67.5 23.5t-25.5 56.5t24 56q-24 24 -24 57t23.5 56.5t58.5 23.5q32 0 64 -30z" />
    <glyph glyph-name="saraamleft" horiz-adv-x="340" 
d="M300 0h-67v285q0 52 -25.5 80t-76.5 28q-25 0 -45 -8t-42 -31l-46 46q31 30 63 43t72 13q43 0 74.5 -13t52 -35.5t30.5 -52t10 -62.5v-293zM-155 575q0 -29 -21 -50t-51 -21q-29 0 -50.5 21t-21.5 50q0 30 21.5 51t50.5 21q30 0 51 -21t21 -51zM-203 575q0 10 -7 16.5
t-17 6.5t-16.5 -6.5t-6.5 -16.5t6.5 -17t16.5 -7t17 7t7 17z" />
    <glyph glyph-name="uni0E33.alt1" horiz-adv-x="340" 
d="M300 0h-67v285q0 52 -25.5 80t-76.5 28q-25 0 -45 -8t-42 -31l-46 46q31 30 63 43t72 13q43 0 74.5 -13t52 -35.5t30.5 -52t10 -62.5v-293zM-155 575q0 -29 -21 -50t-51 -21q-29 0 -50.5 21t-21.5 50q0 30 21.5 51t50.5 21q30 0 51 -21t21 -51zM-203 575q0 10 -7 16.5
t-17 6.5t-16.5 -6.5t-6.5 -16.5t6.5 -17t16.5 -7t17 7t7 17z" />
    <glyph glyph-name="sarainarrowthai" 
d="M-384 520v63h344v-63h-344z" />
    <glyph glyph-name="saraiinarrowthai" 
d="M-384 520v63h281v60h63v-123h-344z" />
    <glyph glyph-name="sarauenarrowthai" 
d="M-34 582q0 -26 -18 -44t-43 -18h-289v63h227q1 26 18.5 43t42.5 17q26 0 44 -17.5t18 -43.5zM-75 581q0 8 -6.5 14.5t-14.5 6.5t-14.5 -6.5t-6.5 -14.5t6.5 -14.5t14.5 -6.5t14.5 6.5t6.5 14.5z" />
    <glyph glyph-name="saraueenarrowthai" 
d="M-384 520v63h176v60h62v-60h43v60h63v-123h-344z" />
    <glyph glyph-name="sarauchochanthai" 
d="M-193 -188v80h-40v64h68q15 0 25 -10.5t10 -24.5v-109h-63z" />
    <glyph glyph-name="sarauuchochanthai" 
d="M-80 -114q0 -18 -7 -34t-18.5 -27.5t-27 -18.5t-33.5 -7q-36 0 -61.5 25.5t-25.5 61.5v6h-40v64h103v-70q0 -10 6.5 -17t16.5 -7q11 0 17.5 7t6.5 17v70h63v-70z" />
    </font>
</defs>
</svg>
